<svg width="1920" height="1080" viewBox="0 0 1920 1080" fill="none" xmlns="http://www.w3.org/2000/svg">
<g clip-path="url(#clip0_1_682)">
<path d="M7.21002 787H1928.21L2801.42 1284.79H-866L7.21002 787Z" stroke="#3CA2F1" stroke-miterlimit="10"/>
<path d="M-460.3 1053.51H2395.72" stroke="#3CA2F1" stroke-miterlimit="10"/>
<path d="M-399.79 1019.02H2335.21" stroke="#3CA2F1" stroke-miterlimit="10"/>
<path d="M-344.2 987.33H2279.62" stroke="#3CA2F1" stroke-miterlimit="10"/>
<path d="M-292.95 958.11H2228.38" stroke="#3CA2F1" stroke-miterlimit="10"/>
<path d="M-245.56 931.1H2180.98" stroke="#3CA2F1" stroke-miterlimit="10"/>
<path d="M-201.6 906.04H2137.02" stroke="#3CA2F1" stroke-miterlimit="10"/>
<path d="M-160.71 882.73H2096.13" stroke="#3CA2F1" stroke-miterlimit="10"/>
<path d="M-122.59 861H2058.01" stroke="#3CA2F1" stroke-miterlimit="10"/>
<path d="M-86.96 840.68H2022.38" stroke="#3CA2F1" stroke-miterlimit="10"/>
<path d="M-53.5801 821.66H1989" stroke="#3CA2F1" stroke-miterlimit="10"/>
<path d="M-22.25 803.8H1957.68" stroke="#3CA2F1" stroke-miterlimit="10"/>
<path d="M1808.15 787L2572.21 1284.79" stroke="#3CA2F1" stroke-miterlimit="10"/>
<path d="M1688.09 787L2343 1284.79" stroke="#3CA2F1" stroke-miterlimit="10"/>
<path d="M1568.02 787L2113.78 1284.79" stroke="#3CA2F1" stroke-miterlimit="10"/>
<path d="M1447.96 787L1884.57 1284.79" stroke="#3CA2F1" stroke-miterlimit="10"/>
<path d="M1327.9 787L1655.35 1284.79" stroke="#3CA2F1" stroke-miterlimit="10"/>
<path d="M1207.84 787L1426.14 1284.79" stroke="#3CA2F1" stroke-miterlimit="10"/>
<path d="M1087.77 787L1196.93 1284.79" stroke="#3CA2F1" stroke-miterlimit="10"/>
<path d="M967.71 787V1284.79" stroke="#3CA2F1" stroke-miterlimit="10"/>
<path d="M847.65 787L738.5 1284.79" stroke="#3CA2F1" stroke-miterlimit="10"/>
<path d="M727.59 787L509.28 1284.79" stroke="#3CA2F1" stroke-miterlimit="10"/>
<path d="M607.52 787L280.07 1284.79" stroke="#3CA2F1" stroke-miterlimit="10"/>
<path d="M487.46 787L50.8599 1284.79" stroke="#3CA2F1" stroke-miterlimit="10"/>
<path d="M367.4 787L-178.36 1284.79" stroke="#3CA2F1" stroke-miterlimit="10"/>
<path d="M247.34 787L-407.57 1284.79" stroke="#3CA2F1" stroke-miterlimit="10"/>
<path d="M127.27 787L-636.79 1284.79" stroke="#3CA2F1" stroke-miterlimit="10"/>
</g>
<defs>
<clipPath id="clip0_1_682">
<rect width="1920" height="1080" fill="white"/>
</clipPath>
</defs>
</svg>
