<svg width="1920" height="1094" viewBox="0 0 1920 1094" fill="none" xmlns="http://www.w3.org/2000/svg">
<path d="M18.9799 -22L18.9798 1092.35M184.147 -22L184.146 1092.35M349.313 -22L349.313 1092.35M1959 -21.355L-23 -21.3551M514.48 -22L514.48 1092.35M1959 102.462L-23 102.462M679.647 -22L679.646 1092.35M1959 226.279L-23 226.279M844.813 -22V1092.35M1959 350.097L-23 350.097M1009.98 -22V1092.35M1959 473.914L-23 473.914M1175.15 -22V1092.35M1959 597.731L-23 597.731M1340.31 -22V1092.35M1959 721.548L-23 721.548M1753.23 -22V1092.35M1959 1031.09L-23 1031.09M1505.48 -22V1092.35M1959 845.366L-23 845.365M1918.4 -22V1092.35M101.563 -22L101.563 1092.35M266.73 -22L266.73 1092.35M431.897 -22L431.896 1092.35M1959 40.5536L-23 40.5535M597.063 -22L597.063 1092.35M1959 164.371L-23 164.371M762.23 -22V1092.35M1959 288.188L-23 288.188M927.397 -22V1092.35M1959 412.005L-23 412.005M1092.56 -22V1092.35M1959 535.822L-23 535.822M1257.73 -22V1092.35M1959 659.64L-23 659.64M1670.65 -22V1092.35M1959 969.183L-23 969.183M1422.9 -22V1092.35M1959 783.457L-23 783.457M1835.81 -22V1092.35M1959 1093L-23 1093M1588.06 -22V1092.35M1959 907.274L-23 907.274" stroke="url(#paint0_radial_1_254)" stroke-opacity="0.75" stroke-width="2"/>
<defs>
<radialGradient id="paint0_radial_1_254" cx="0" cy="0" r="1" gradientUnits="userSpaceOnUse" gradientTransform="translate(968 535.177) rotate(90) scale(535.251 571.201)">
<stop stop-color="#3CA2F1"/>
<stop offset="1" stop-color="#3CA2F1" stop-opacity="0"/>
</radialGradient>
</defs>
</svg>
