<svg width="1920" height="904" viewBox="0 0 1920 904" fill="none" xmlns="http://www.w3.org/2000/svg">
<g opacity="0.3" clip-path="url(#clip0_1_440)">
<path d="M-3.86005 321.79H1917.14L2790.35 -176H-877.07L-3.86005 321.79Z" stroke="#3CA2F1" stroke-miterlimit="10"/>
<path d="M-537.48 17.5901H2450.77" stroke="#3CA2F1" stroke-miterlimit="10"/>
<path d="M-471.37 55.28H2384.65" stroke="#3CA2F1" stroke-miterlimit="10"/>
<path d="M-410.86 89.77H2324.14" stroke="#3CA2F1" stroke-miterlimit="10"/>
<path d="M-355.27 121.46H2268.55" stroke="#3CA2F1" stroke-miterlimit="10"/>
<path d="M-304.02 150.68H2217.31" stroke="#3CA2F1" stroke-miterlimit="10"/>
<path d="M-256.63 177.69H2169.91" stroke="#3CA2F1" stroke-miterlimit="10"/>
<path d="M-212.67 202.75H2125.95" stroke="#3CA2F1" stroke-miterlimit="10"/>
<path d="M-171.78 226.06H2085.06" stroke="#3CA2F1" stroke-miterlimit="10"/>
<path d="M-133.66 247.79H2046.94" stroke="#3CA2F1" stroke-miterlimit="10"/>
<path d="M-98.03 268.11H2011.31" stroke="#3CA2F1" stroke-miterlimit="10"/>
<path d="M-64.65 287.13H1977.93" stroke="#3CA2F1" stroke-miterlimit="10"/>
<path d="M-33.32 304.99H1946.61" stroke="#3CA2F1" stroke-miterlimit="10"/>
<path d="M1797.08 321.79L2561.14 -176" stroke="#3CA2F1" stroke-miterlimit="10"/>
<path d="M1677.02 321.79L2331.93 -176" stroke="#3CA2F1" stroke-miterlimit="10"/>
<path d="M1556.95 321.79L2102.71 -176" stroke="#3CA2F1" stroke-miterlimit="10"/>
<path d="M1436.89 321.79L1873.5 -176" stroke="#3CA2F1" stroke-miterlimit="10"/>
<path d="M1316.83 321.79L1644.28 -176" stroke="#3CA2F1" stroke-miterlimit="10"/>
<path d="M1196.77 321.79L1415.07 -176" stroke="#3CA2F1" stroke-miterlimit="10"/>
<path d="M1076.7 321.79L1185.86 -176" stroke="#3CA2F1" stroke-miterlimit="10"/>
<path d="M956.64 321.79V-176" stroke="#3CA2F1" stroke-miterlimit="10"/>
<path d="M836.58 321.79L727.43 -176" stroke="#3CA2F1" stroke-miterlimit="10"/>
<path d="M716.52 321.79L498.21 -176" stroke="#3CA2F1" stroke-miterlimit="10"/>
<path d="M596.45 321.79L269 -176" stroke="#3CA2F1" stroke-miterlimit="10"/>
<path d="M476.39 321.79L39.79 -176" stroke="#3CA2F1" stroke-miterlimit="10"/>
<path d="M356.33 321.79L-189.43 -176" stroke="#3CA2F1" stroke-miterlimit="10"/>
<path d="M236.27 321.79L-418.64 -176" stroke="#3CA2F1" stroke-miterlimit="10"/>
<path d="M116.2 321.79L-647.86 -176" stroke="#3CA2F1" stroke-miterlimit="10"/>
</g>
<defs>
<clipPath id="clip0_1_440">
<rect width="1920" height="1080" fill="white" transform="matrix(1 0 0 -1 0 904)"/>
</clipPath>
</defs>
</svg>
