<svg width="1920" height="1080" viewBox="0 0 1920 1080" fill="none" xmlns="http://www.w3.org/2000/svg">
<path d="M10.9799 -17L10.9798 1097.35M176.147 -17L176.146 1097.35M341.313 -17L341.313 1097.35M1951 -16.355L-31 -16.3551M506.48 -17L506.48 1097.35M1951 107.462L-31 107.462M671.647 -17L671.646 1097.35M1951 231.279L-31 231.279M836.813 -17V1097.35M1951 355.097L-31 355.097M1001.98 -17V1097.35M1951 478.914L-31 478.914M1167.15 -17V1097.35M1951 602.731L-31 602.731M1332.31 -17V1097.35M1951 726.548L-31 726.548M1745.23 -17V1097.35M1951 1036.09L-31 1036.09M1497.48 -17V1097.35M1951 850.366L-31 850.365M1910.4 -17V1097.35M93.5632 -17L93.5632 1097.35M258.73 -17L258.73 1097.35M423.897 -17L423.896 1097.35M1951 45.5536L-31 45.5535M589.063 -17L589.063 1097.35M1951 169.371L-31 169.371M754.23 -17V1097.35M1951 293.188L-31 293.188M919.397 -17V1097.35M1951 417.005L-31 417.005M1084.56 -17V1097.35M1951 540.822L-31 540.822M1249.73 -17V1097.35M1951 664.64L-31 664.64M1662.65 -17V1097.35M1951 974.183L-31 974.183M1414.9 -17V1097.35M1951 788.457L-31 788.457M1827.81 -17V1097.35M1951 1098L-31 1098M1580.06 -17V1097.35M1951 912.274L-31 912.274" stroke="url(#paint0_radial_1_511)" stroke-opacity="0.75" stroke-width="2"/>
<defs>
<radialGradient id="paint0_radial_1_511" cx="0" cy="0" r="1" gradientUnits="userSpaceOnUse" gradientTransform="translate(960 540.177) rotate(90) scale(535.251 571.201)">
<stop stop-color="#3CA2F1"/>
<stop offset="1" stop-color="#3CA2F1" stop-opacity="0"/>
</radialGradient>
</defs>
</svg>
