<svg width="100" height="100" viewBox="0 0 100 100" fill="none" xmlns="http://www.w3.org/2000/svg">
<g clip-path="url(#clip0_1_598)">
<path d="M80.9049 73.5938C78.8699 76.1372 76.4485 78.1473 73.783 79.5063C71.1174 80.8653 68.2613 81.5457 65.3823 81.5076C59.3657 81.5076 53.8305 78.6526 49.8596 73.6439C47.9343 71.1896 46.4904 68.3847 45.6079 65.3293C44.7526 62.413 44.4136 59.2999 44.6144 56.2043C44.8152 53.1087 45.551 50.1043 46.7711 47.3979C47.9343 44.7934 49.5387 42.3892 51.5041 40.3857C55.3547 36.4788 60.2482 34.3752 65.3823 34.3752C70.5164 34.3752 75.4098 36.4287 79.2604 40.3356C81.2258 42.3391 82.8302 44.6932 83.9533 47.3479C85.8102 51.5416 86.5137 56.3804 85.9558 61.1217C85.3979 65.8629 83.6094 70.2444 80.8648 73.5938H80.9049Z" fill="#E9F5DB"/>
<path d="M52.547 56.4137C52.7476 52.3566 54.352 48.7503 56.7586 46.1958C59.1251 43.6915 62.3339 42.1387 65.8235 42.1387C69.273 42.1387 72.4818 43.6915 74.8483 46.1958C77.2549 48.7503 78.8593 52.3566 79.0599 56.4137C79.2203 60.6211 77.8967 64.5279 75.5302 67.433C73.0834 70.3381 69.6741 72.1913 65.8235 72.1913C61.9729 72.1913 58.5234 70.3381 56.0767 67.433C53.7102 64.5279 52.3866 60.6211 52.547 56.4137Z" fill="#3CA2F1"/>
<path d="M31.4892 64.6782C31.4892 66.281 31.8903 69.3864 32.532 71.8407C33.8155 76.9496 35.9815 81.708 39.0299 85.9153C42.1585 90.1728 45.9689 93.6288 50.4212 96.0831C55.1304 98.7059 60.2302 100.057 65.3865 100.049C70.5429 100.04 75.6397 98.6716 80.3434 96.033C84.6593 93.6367 88.5259 90.1391 91.6945 85.7651C96.1071 79.6903 98.8234 71.9925 99.4358 63.8267C99.9138 56.0846 98.3806 48.3563 95.0638 41.7881C93.0643 37.7849 90.5111 34.2574 87.5231 31.3699L56.8789 2.01852L56.7987 1.91834C54.7932 0.015012 51.3838 0.015012 49.1777 1.91834C46.9717 3.87176 46.6909 7.12746 48.6964 9.18105L61.4515 22.1538L22.5045 22.2038H22.4644C19.2154 22.2038 16.127 24.8585 15.5253 28.1643C14.8835 31.5702 17.0896 34.3751 20.4187 34.4252L40.153 34.3751L4.93621 68.1342L4.81588 68.2845C1.48673 71.44 0.403756 76.7493 2.48949 80.0551C4.61533 83.461 9.14778 83.461 12.517 80.1052L31.7298 60.4207C31.7298 60.4207 31.449 63.0754 31.449 64.6782H31.4892ZM80.9049 73.5938C78.8699 76.1372 76.4485 78.1473 73.783 79.5063C71.1174 80.8653 68.2613 81.5457 65.3823 81.5076C59.3657 81.5076 53.8305 78.6526 49.8596 73.6439C47.9343 71.1896 46.4904 68.3847 45.6079 65.3293C44.7526 62.413 44.4136 59.2999 44.6144 56.2043C44.8152 53.1087 45.551 50.1043 46.7711 47.3979C47.9343 44.7934 49.5387 42.3892 51.5041 40.3857C55.3547 36.4788 60.2482 34.3751 65.3823 34.3751C70.5164 34.3751 75.4098 36.4287 79.2604 40.3356C81.2258 42.3391 82.8302 44.6932 83.9533 47.3478C85.8102 51.5416 86.5137 56.3804 85.9558 61.1216C85.3979 65.8629 83.6094 70.2444 80.8648 73.5938H80.9049Z" fill="#666666" fill-opacity="0.9"/>
</g>
<defs>
<clipPath id="clip0_1_598">
<rect width="100" height="100" fill="white"/>
</clipPath>
</defs>
</svg>
