<svg width="187" height="187" viewBox="0 0 187 187" fill="none" xmlns="http://www.w3.org/2000/svg">
<g filter="url(#filter0_dd_740_183)">
<path fill-rule="evenodd" clip-rule="evenodd" d="M90.2005 155.3C57.7526 153.518 31.9557 126.607 31.9557 93.7214C31.9557 80.1849 36.3255 67.6589 43.7318 57.4818V62.8724C38.1745 71.836 34.961 82.4089 34.961 93.7214C34.961 124.945 59.4193 150.508 90.2005 152.284V155.3ZM149.992 93.6745C149.992 62.5651 124.737 37.3047 93.6276 37.3047C62.5182 37.3047 37.263 62.5651 37.263 93.6745C37.263 124.784 62.5182 150.039 93.6276 150.039C124.737 150.039 149.992 124.784 149.992 93.6745ZM147.586 93.6745C147.586 123.456 123.409 147.633 93.6276 147.633C63.8464 147.633 39.6693 123.456 39.6693 93.6745C39.6693 63.8933 63.8464 39.7162 93.6276 39.7162C123.409 39.7162 147.586 63.8933 147.586 93.6745ZM80.6745 47.0495C60.2735 52.7162 45.2839 71.4401 45.2839 93.6329C45.2839 96.1329 45.4714 98.586 45.8412 100.982H43.3307C42.9818 98.5808 42.8047 96.1276 42.8047 93.6329C42.8047 70.0599 58.888 50.2162 80.6745 44.4766V47.0495ZM44.2005 105.513H46.7578C48.9714 114.263 53.5703 122.065 59.8307 128.185V131.581C52.2162 124.794 46.6589 115.753 44.2005 105.513ZM84.6432 137.732C76.2057 136.148 68.1328 132.138 61.5391 125.69C55.8985 120.175 52.013 113.539 49.8932 106.477L51.6641 104.664C53.5912 111.82 57.3985 118.57 63.0755 124.117C69.7266 130.617 77.961 134.518 86.513 135.82L84.6432 137.732ZM59.4818 42.362C69.263 35.8464 81.0078 32.0443 93.6276 32.0443C104.43 32.0443 114.581 34.8256 123.414 39.711V43.1797C114.68 38.0183 104.497 35.0547 93.6276 35.0547C80.8985 35.0547 69.1068 39.1172 59.4818 46.0235V42.362ZM65.4349 58.2214C72.112 52.8256 80.3985 49.2787 89.5807 48.4349C97.4401 47.7162 105.013 49.0599 111.763 52.0235L111.992 54.5443C105.294 51.3724 97.6901 49.8985 89.7839 50.6224C80.5235 51.4766 72.2162 55.2214 65.6797 60.8829L65.4349 58.2214ZM121.763 135.956C113.706 141.326 104.029 144.461 93.6276 144.461C84.7266 144.461 76.3568 142.164 69.0807 138.138V135.284C76.2787 139.539 84.6693 141.977 93.6276 141.977C104.117 141.977 113.831 138.628 121.763 132.94V135.956ZM104.753 129.862C101.534 130.701 98.1693 131.195 94.7005 131.305C86.8151 131.544 79.336 129.737 72.7839 126.367L72.7057 123.831C79.2005 127.409 86.7005 129.346 94.6328 129.107C98.1068 128.997 101.471 128.482 104.685 127.602L104.753 129.862ZM133.081 115.435C128.768 122.857 122.294 129.133 114.023 133.201C106.94 136.68 99.388 138.128 92.0235 137.773L90.9089 135.497C98.2943 136.07 105.924 134.727 113.049 131.227C121.398 127.122 127.815 120.659 131.904 113.034L133.081 115.435ZM96.4505 42.8881C123.19 44.3568 144.451 66.5339 144.451 93.6329C144.451 104.789 140.852 115.112 134.747 123.497L134.747 119.055C139.326 111.664 141.971 102.956 141.971 93.6329C141.971 67.8985 121.82 46.836 96.4505 45.3724V42.8881ZM109.346 150.247C134.102 143.372 152.289 120.654 152.289 93.7214C152.289 90.6901 152.06 87.7162 151.617 84.8047H154.659C155.086 87.7162 155.299 90.6901 155.299 93.7214C155.299 122.326 135.784 146.409 109.346 153.367V150.247ZM138.638 95.9297L136.456 95.3308C136.617 87.3308 134.508 79.5808 130.596 72.8829L131.393 69.9818C136.305 77.5651 138.94 86.5964 138.638 95.9297ZM153.607 79.3099H150.503C147.815 68.6849 142.232 59.2162 134.643 51.7891V47.6745C143.878 55.9089 150.628 66.8776 153.607 79.3099Z" fill="#3CA2F1"/>
</g>
<defs>
<filter id="filter0_dd_740_183" x="0.873125" y="0.961687" width="185.509" height="185.42" filterUnits="userSpaceOnUse" color-interpolation-filters="sRGB">
<feFlood flood-opacity="0" result="BackgroundImageFix"/>
<feColorMatrix in="SourceAlpha" type="matrix" values="0 0 0 0 0 0 0 0 0 0 0 0 0 0 0 0 0 0 127 0" result="hardAlpha"/>
<feOffset/>
<feGaussianBlur stdDeviation="8.88075"/>
<feColorMatrix type="matrix" values="0 0 0 0 0.235294 0 0 0 0 0.635294 0 0 0 0 0.945098 0 0 0 1 0"/>
<feBlend mode="normal" in2="BackgroundImageFix" result="effect1_dropShadow_740_183"/>
<feColorMatrix in="SourceAlpha" type="matrix" values="0 0 0 0 0 0 0 0 0 0 0 0 0 0 0 0 0 0 127 0" result="hardAlpha"/>
<feOffset/>
<feGaussianBlur stdDeviation="15.5413"/>
<feColorMatrix type="matrix" values="0 0 0 0 0.235294 0 0 0 0 0.635294 0 0 0 0 0.945098 0 0 0 1 0"/>
<feBlend mode="normal" in2="effect1_dropShadow_740_183" result="effect2_dropShadow_740_183"/>
<feBlend mode="normal" in="SourceGraphic" in2="effect2_dropShadow_740_183" result="shape"/>
</filter>
</defs>
</svg>
