<svg width="200" height="200" viewBox="0 0 200 200" fill="none" xmlns="http://www.w3.org/2000/svg">
<g clip-path="url(#clip0_1_726)">
<path d="M196.617 0C196.955 1.03285 196.993 1.88913 197.042 2.97785C197.056 3.29272 197.056 3.29272 197.071 3.61396C197.093 4.07238 197.114 4.53082 197.134 4.98929C197.166 5.7267 197.201 6.46402 197.235 7.20133C197.285 8.25786 197.334 9.31442 197.383 10.371C197.741 18.1002 198.119 25.8234 198.734 33.5366C198.784 34.1695 198.834 34.8025 198.884 35.4354C198.98 36.6529 199.077 37.8702 199.174 39.0875C199.221 39.6762 199.268 40.2649 199.315 40.8537C199.338 41.1438 199.362 41.434 199.386 41.733C199.988 49.3253 200.305 56.8919 200.325 64.5077C200.327 65.1262 200.331 65.7446 200.334 66.3631C200.34 67.5184 200.338 68.6736 200.334 69.829C200.336 70.1757 200.338 70.5225 200.34 70.8797C200.337 71.2002 200.334 71.5206 200.331 71.8507C200.33 72.2683 200.33 72.2683 200.329 72.6943C200.19 73.6448 199.864 74.2236 199.315 75C198.581 75.3733 198.105 75.3436 197.284 75.3443C196.985 75.3453 196.686 75.3462 196.378 75.3472C196.053 75.3466 195.727 75.346 195.391 75.3454C194.885 75.3458 194.885 75.3458 194.368 75.3462C193.649 75.3465 192.929 75.3459 192.21 75.3446C191.13 75.343 190.05 75.3446 188.97 75.3466C185.539 75.3473 182.119 75.3184 178.694 75.0898C177.45 75.0102 176.281 75.0146 175.046 75.1905C174.105 75.3205 173.854 75.3153 172.928 74.9428C171.679 73.7916 171.501 72.351 171.129 70.7317C170.876 70.6763 170.622 70.6209 170.361 70.5638C167.243 69.8612 167.243 69.8612 165.938 69.3216C163.791 68.5076 161.656 68.5746 159.398 68.6166C157.167 68.6404 155.099 68.4949 152.897 68.1271C150.638 67.7985 148.604 67.815 146.409 68.4511C144.213 69.0346 142.106 68.9707 139.851 68.9024C136.455 68.6824 136.455 68.6824 133.348 69.8171C132.881 70.2882 132.881 70.2882 132.617 70.8651C132.498 71.0801 132.379 71.295 132.255 71.5165C132.121 71.7606 131.987 72.0046 131.849 72.2561C130.644 74.2539 129.369 76.0682 127.782 77.763C124.176 81.63 122.793 85.515 122.154 90.7155C121.826 93.0949 121.147 95.0816 120.155 97.2561C120.018 97.5643 119.881 97.8725 119.741 98.1901C119.451 98.8431 119.159 99.4955 118.866 100.147C117.168 103.93 115.571 107.746 114.045 111.604C113.952 111.84 113.859 112.075 113.763 112.318C113.383 113.279 113.003 114.24 112.623 115.201C102.295 141.295 102.295 141.295 95.7676 144.215C93.5673 145.101 91.4241 145.426 89.0829 145.694C83.3704 146.431 77.9688 147.785 72.4975 149.6C72.1453 149.716 71.7931 149.832 71.4303 149.951C70.9433 150.119 70.9433 150.119 70.4465 150.289C70.1582 150.388 69.8699 150.486 69.5728 150.588C68.7876 150.884 68.7876 150.884 68.2808 151.829C68.2238 152.618 68.2238 152.618 68.2782 153.517C68.4599 159.712 67.7746 165.564 66.8043 171.671C66.6096 172.905 66.422 174.139 66.234 175.374C66.0154 176.807 65.7965 178.239 65.575 179.671C65.1769 182.245 64.7864 184.819 64.4331 187.4C64.3977 187.652 64.3623 187.905 64.3258 188.165C64.1012 189.849 64.0151 191.518 63.9705 193.216C63.8979 195.364 63.5145 197.009 62.2838 198.78C62.0983 199.051 61.9127 199.321 61.7216 199.6C61.0844 200 61.0844 200 59.9975 199.962C58.9855 199.695 58.9855 199.695 58.3858 199.085C58.4236 197.315 59.0928 195.881 59.8089 194.286C60.7786 191.724 60.9149 189.124 61.0945 186.407C61.4184 181.634 62.1274 177.022 63.1086 172.344C63.1551 172.12 63.2017 171.896 63.2496 171.665C63.3765 171.057 63.5075 170.451 63.6387 169.844C63.8568 168.894 63.8568 168.894 63.4832 167.988C62.8895 168.189 62.2958 168.39 61.6841 168.598C61.2879 163.009 62.4668 157.597 63.4832 152.134C62.4207 152.456 61.3589 152.781 60.2973 153.106C59.9811 153.202 59.665 153.299 59.3393 153.398C57.6378 153.924 55.9748 154.487 54.319 155.145C52.1451 155.958 49.6069 156.541 47.3393 155.831C46.6916 155.488 46.6916 155.488 46.3918 154.897C46.3918 154.268 46.3918 154.268 46.7103 153.823C47.5214 153.168 48.4233 152.875 49.3903 152.534C51.297 151.84 53.1552 151.068 55.0124 150.248C57.316 149.243 59.5672 148.451 62.0567 148.067C64.3342 147.695 66.4335 147.015 68.6029 146.23C68.9719 146.098 69.3409 145.967 69.7211 145.831C70.7072 145.48 71.6921 145.125 72.6768 144.77C73.2873 144.549 73.8981 144.33 74.509 144.111C85.0881 140.376 85.0881 140.376 95.4735 136.128C95.7866 135.99 95.7866 135.99 96.1061 135.848C99.7287 134.175 101.118 130.979 102.707 127.458C102.872 127.095 103.037 126.731 103.207 126.357C105.99 120.16 108.393 113.788 110.856 107.455C111.23 106.492 111.606 105.529 111.982 104.567C112.236 103.913 112.488 103.258 112.74 102.604C113.509 100.62 114.327 98.7008 115.293 96.8071C116.061 95.2808 116.557 94.0128 116.8 92.3209C116.863 91.9108 116.926 91.5007 116.989 91.0906C117.072 90.5206 117.072 90.5206 117.156 89.939C117.279 89.3162 117.404 88.6937 117.531 88.0716C117.789 86.5404 117.894 85.4902 117.072 84.1118C114.855 80.9488 111.964 79.4881 108.348 78.6204C108.13 78.565 107.911 78.5096 107.685 78.4525C106.111 78.0724 104.595 77.8382 102.988 78.2012C101.768 79.2652 101.566 81.0041 101.358 82.5457C101.04 84.5307 100.256 86.2781 99.4937 88.1193C98.755 89.9476 98.2368 91.7463 97.816 93.6738C96.7525 98.4236 94.254 102.278 91.7289 106.361C90.6978 108.13 90.3584 109.426 90.2612 111.47C90.1699 112.195 90.1699 112.195 89.5889 113.091C87.4634 114.546 84.9127 115.209 82.4675 115.911C81.8299 116.097 81.1923 116.282 80.5547 116.468C80.218 116.566 79.8813 116.663 79.5344 116.764C78.4403 117.083 77.3481 117.409 76.2561 117.735C72.3911 118.89 68.5215 120.01 64.6264 121.056C63.5214 121.354 62.4165 121.653 61.3116 121.952C60.5381 122.161 59.7643 122.368 58.9901 122.574C57.8185 122.887 56.6498 123.21 55.481 123.533C55.1228 123.627 54.7646 123.721 54.3955 123.818C54.0661 123.911 53.7367 124.003 53.3972 124.098C53.1075 124.177 52.8177 124.256 52.5191 124.337C51.5972 124.789 51.3684 125.322 50.8895 126.22C50.6916 126.22 50.4937 126.22 50.2898 126.22C49.993 125.767 49.993 125.767 49.6901 125.305C49.44 125.349 49.1899 125.393 48.9323 125.438C46.9665 125.768 45.0855 126.078 43.0934 125.915C42.5745 125.503 42.5745 125.503 42.1939 125C42.1376 124.181 42.1376 124.181 42.1939 123.476C44.7448 122.022 47.5501 121.233 50.324 120.337C50.99 120.121 51.6548 119.902 52.3196 119.682C52.6261 119.585 52.6261 119.585 52.9387 119.486C53.9579 119.148 54.7155 118.861 55.3873 117.988C54.9731 116.39 54.9731 116.39 53.888 115.244C53.3297 115.309 53.3297 115.309 52.6886 115.549C51.0699 115.898 50.1023 115.789 48.5657 115.187C43.2101 113.201 37.5193 112.688 31.89 112.037C31.0769 111.942 30.2642 111.845 29.4515 111.747C28.4743 111.63 27.497 111.515 26.5197 111.4C26.1583 111.357 25.7969 111.314 25.4246 111.27C25.0889 111.231 24.7532 111.192 24.4074 111.152C23.9667 111.101 23.9667 111.101 23.5172 111.048C22.732 110.978 21.9909 110.915 21.2043 110.976C19.5126 112.696 19.2829 114.584 19.0609 116.895C19.0317 117.181 19.0026 117.468 18.9725 117.763C18.8767 118.714 18.7846 119.666 18.6931 120.617C18.6606 120.95 18.6282 121.282 18.5947 121.624C17.6684 131.126 16.8992 140.632 16.3974 150.167C16.3844 150.413 16.3714 150.659 16.3581 150.913C16.229 153.371 16.1032 155.829 15.9852 158.287C15.7583 163 15.4911 167.705 15.0773 172.405C15.0442 172.798 15.0111 173.19 14.977 173.595C14.6819 176.757 14.0658 179.734 12.9198 182.691C12.7766 183.062 12.6334 183.432 12.4859 183.814C12.376 184.093 12.376 184.093 12.264 184.378C12.0367 184.956 11.8136 185.535 11.591 186.115C10.4892 188.944 10.4892 188.944 9.81005 189.634C8.76057 189.577 8.76057 189.577 7.7111 189.329C6.46408 187.427 6.59871 184.829 6.96045 182.633C7.14704 181.742 7.34017 180.853 7.53751 179.965C8.8061 174.184 9.60591 168.326 10.421 162.465C10.5218 161.741 10.6231 161.016 10.7244 160.291C10.9172 158.909 11.1077 157.527 11.2976 156.145C11.3267 155.934 11.3559 155.724 11.3859 155.506C11.8445 152.18 12.2347 148.882 12.2826 145.521C12.292 145.031 12.3015 144.541 12.3111 144.051C12.3157 143.799 12.3203 143.548 12.3251 143.289C12.6191 128.001 14.7202 114.138 22.1039 100.61C24.9661 95.8745 24.9661 95.8745 25.4023 90.5488C24.8337 89.5765 24.1267 88.8635 23.3033 88.1097C23.0456 87.869 23.0456 87.869 22.7827 87.6233C21.3872 86.3441 19.9357 85.2708 18.3558 84.2416C14.8257 81.8917 11.4097 79.4182 8.32017 76.4863C7.67449 75.8644 7.67449 75.8644 6.77406 75.1715C3.08997 71.8328 1.70759 67.882 0.814544 63.1098C0.711921 62.5615 0.711921 62.5615 0.607226 62.0022C-0.312664 55.9455 -0.295768 49.495 1.41424 43.5976C1.48169 43.3583 1.54914 43.1191 1.61863 42.8726C2.42473 40.0672 3.31634 37.4543 5.01244 35.061C5.22271 34.7529 5.43298 34.4447 5.64963 34.1273C8.38568 30.9898 12.7743 28.2726 16.9438 27.9926C18.1973 27.9551 19.4501 27.9359 20.7042 27.9297C22.5114 27.8882 23.7093 27.8195 25.1024 26.5244C25.7532 25.756 25.7532 25.756 26.3018 24.9047C26.5078 24.608 26.7138 24.3113 26.9261 24.0056C27.1159 23.7301 27.3057 23.4546 27.5012 23.1707C30.9842 18.1729 37.1226 16.2396 42.7444 15.0665C48.0787 14.35 52.7655 15.282 57.7626 17.1077C62.1933 18.7153 66.2887 20.059 70.8506 18.0712C72.3919 17.2498 73.78 16.301 75.0837 15.1296C75.9912 14.4812 76.4896 14.4461 77.5762 14.6341C78.4413 15.236 78.7202 15.6173 78.963 16.654C78.263 20.4971 74.5229 24.2438 71.5792 26.5244C69.7809 27.7229 67.8992 28.8074 65.882 29.5732C66.049 29.7587 66.216 29.9442 66.388 30.1353C70.9333 35.4437 72.4143 42.0841 73.978 48.7805C77.1634 49.8615 80.5549 48.9298 83.5732 47.561C84.3674 46.9185 84.4572 46.7267 84.6601 45.6745C84.7174 45.082 84.7741 44.4893 84.8136 43.8953C84.9729 42.0164 85.5616 40.8842 86.9441 39.6377C87.8264 38.9833 88.6838 38.575 89.6826 38.1288C92.1266 36.9716 94.004 35.2285 95.9502 33.3606C97.3886 32.1525 98.3354 31.9016 100.214 31.9574C100.427 31.9633 100.64 31.9692 100.86 31.9753C101.309 31.9889 101.759 32.0049 102.208 32.0232C102.891 32.0502 103.575 32.0674 104.259 32.0836C104.697 32.0982 105.135 32.1132 105.573 32.1289C105.877 32.1361 105.877 32.1361 106.187 32.1435C107.889 32.2227 109.111 32.689 110.335 33.8986C111 34.9849 111.174 35.9506 111.459 37.1951C118.962 35.5338 125.936 32.2745 132.927 29.1227C140.685 25.6265 148.539 22.8215 156.7 20.4601C161.731 19.3469 161.731 19.3469 165.732 16.4634C166.086 15.7625 166.298 15.1287 166.436 14.3543C166.476 14.1448 166.516 13.9353 166.557 13.7195C166.586 13.5246 166.615 13.3296 166.646 13.1288C167.693 10.8238 170.603 10.0838 172.741 9.20351C173.147 9.03376 173.552 8.8638 173.958 8.69364C175.311 8.12738 176.668 7.56923 178.026 7.01219C178.274 6.91018 178.523 6.80816 178.778 6.70306C182.283 5.26395 185.79 3.83385 189.305 2.42224C190.05 2.12191 190.794 1.81831 191.537 1.51456C192.026 1.31688 192.515 1.11928 193.003 0.92178C193.341 0.782531 193.341 0.782531 193.686 0.640469C194.741 0.216861 195.466 0 196.617 0ZM177.183 14.0816C176.991 14.1972 176.799 14.3129 176.601 14.4321C174.866 15.5338 173.441 17.0184 172.535 18.9024C172.443 19.0848 172.352 19.2671 172.257 19.455C171.566 21.4732 171.805 23.2218 172.113 25.287C172.566 28.6307 172.816 31.9692 173.013 35.3361C173.028 35.5937 173.043 35.8512 173.059 36.1166C173.153 37.7232 173.243 39.33 173.333 40.9369C173.838 50.1359 173.838 50.1359 174.497 59.3245C174.532 59.76 174.564 60.1957 174.595 60.6315C174.638 61.228 174.689 61.8239 174.74 62.4197C174.767 62.7535 174.793 63.0874 174.821 63.4313C175.069 64.509 175.478 65.061 176.227 65.8537C176.888 66.1529 176.888 66.1529 177.614 66.2347C177.846 66.2741 178.079 66.3134 178.319 66.3538C181.509 66.7394 184.702 66.9465 187.909 67.1188C188.508 67.1521 189.107 67.188 189.706 67.2263C190.575 67.2817 191.445 67.3289 192.314 67.3745C192.582 67.3931 192.85 67.4118 193.127 67.4311C194.527 67.5236 194.527 67.5236 195.739 66.9141C196.121 65.8772 196.114 64.9185 196.078 63.8291C196.074 63.6004 196.07 63.3717 196.066 63.1361C196.057 62.6548 196.046 62.1736 196.034 61.6925C196.018 61.0145 196.009 60.3371 196.005 59.659C195.96 53.7365 195.661 47.87 195.095 41.976C194.47 35.4261 194.117 28.8637 193.772 22.2936C193.484 16.5913 193.484 16.5913 193.021 10.9018C192.999 10.6766 192.978 10.4514 192.956 10.2194C192.83 9.05984 192.603 8.07144 192.119 7.01219C187.368 7.01219 181.143 11.6412 177.183 14.0816ZM30.7996 25.9146C30.0283 26.8829 29.3117 27.8869 28.6336 28.9247C27.6217 30.4511 26.5617 31.416 24.8025 32.0122C23.9636 32.0184 23.1297 32.0103 22.2913 31.9931C17.4804 31.9565 13.1418 32.6048 9.56408 36.1495C5.13682 41.1673 3.8263 49.0363 4.05916 55.5432C4.41297 61.201 5.52505 67.2123 9.21035 71.6463C9.38969 71.8696 9.56904 72.0928 9.75382 72.3228C11.3304 74.1012 13.1733 75.2162 15.1833 76.411C16.8364 77.4087 18.3249 78.5106 19.7988 79.7637C19.9959 79.9295 20.193 80.0953 20.396 80.2661C21.1413 80.8937 21.8864 81.5214 22.6272 82.1545C24.6089 83.8524 24.6089 83.8524 27.0573 84.5179C28.0882 84.4324 28.0882 84.4324 29.0379 84.2202C30.1396 84.1258 30.545 84.3643 31.3993 85.061C31.842 85.7184 31.842 85.7184 32.1864 86.4329C32.7952 87.7414 32.7952 87.7414 33.7981 88.7195C34.9704 88.7243 35.4621 88.5393 36.3339 87.7346C37.6612 86.0404 38.9419 84.3238 40.1324 82.5267C40.2494 82.3554 40.3665 82.1842 40.4871 82.0078C41.283 80.757 41.4651 79.8278 41.2943 78.3537C40.2527 77.0887 39.2719 76.7269 37.7336 76.2576C35.6865 75.6094 34.2019 74.6917 33.0965 72.7813C31.6047 69.5373 31.7453 66.4561 32.8985 63.1098C33.7806 61.3053 34.5945 60.174 36.4967 59.4512C37.4379 59.3488 38.3627 59.3642 39.3078 59.3941C39.5571 59.3982 39.8064 59.4023 40.0633 59.4066C40.6736 59.4173 41.2838 59.4337 41.894 59.4512C41.9381 59.1679 41.9821 58.8845 42.0275 58.5926C42.6859 54.9029 42.6859 54.9029 44.2014 53.4847C44.9951 52.6003 44.9356 51.4296 44.9663 50.2834C44.9811 49.8354 44.9811 49.8354 44.9962 49.3783C45.0143 48.7583 45.0315 48.1382 45.0477 47.5181C45.1441 44.6834 45.324 41.9888 46.9915 39.6341C48.4355 38.4635 49.8061 38.0783 51.5642 37.6715C53.6982 37.1351 55.6027 36.5513 57.4862 35.3659C57.9599 35.0711 57.9599 35.0711 58.4431 34.7704C60.4449 33.5936 60.4449 33.5936 61.6841 31.7073C60.3316 30.0486 60.3316 30.0486 58.7418 28.6395C57.8584 27.8439 57.7732 27.0567 57.4862 25.9146C57.6522 25.921 57.8181 25.9274 57.9891 25.934C62.3029 26.0782 65.5391 25.9502 68.8805 22.8659C68.8805 22.7652 68.8805 22.6646 68.8805 22.561C68.7018 22.5613 68.523 22.5617 68.3389 22.562C62.9269 22.5379 58.0414 21.5727 52.8608 20.035C44.976 17.7463 36.4838 19.7058 30.7996 25.9146ZM163.384 22.898C163.176 22.9697 162.969 23.0413 162.755 23.1151C162.066 23.3536 161.379 23.5957 160.691 23.8377C159.706 24.18 158.72 24.52 157.735 24.8595C157.48 24.9473 157.226 25.0351 156.963 25.1255C155.207 25.7283 153.444 26.3017 151.672 26.8555C151.431 26.9307 151.19 27.006 150.942 27.0835C150.703 27.1584 150.463 27.2333 150.216 27.3105C145.072 28.9188 140.079 30.7209 135.147 32.9268C134.935 33.0215 134.723 33.1162 134.505 33.2138C131.945 34.3578 129.39 35.5129 126.839 36.6771C124.622 37.6889 122.393 38.6695 120.155 39.6341C120.297 40.127 120.297 40.127 120.443 40.6298C120.754 41.7678 120.938 42.8659 121.092 44.0358C121.142 44.4127 121.192 44.7896 121.244 45.1779C121.299 45.603 121.299 45.603 121.354 46.0366C121.988 45.2166 122.49 44.4076 122.945 43.4737C123.071 43.2218 123.196 42.9699 123.326 42.7103C123.585 42.1849 123.843 41.6585 124.099 41.1311C124.802 39.73 125.374 38.6278 126.752 37.8049C127.839 37.7668 127.839 37.7668 128.851 38.1098C130.022 39.629 130.098 41.7329 130.35 43.5976C130.566 43.3775 130.783 43.1574 131.006 42.9306C131.284 42.6477 131.562 42.3647 131.849 42.0732C132.078 41.7902 132.307 41.5072 132.542 41.2157C133.688 40.2672 134.292 40.4079 135.747 40.5488C136.497 40.7012 136.497 40.7012 136.946 40.8537C137.662 43.3691 137.319 45.7887 136.347 48.1707C136.746 48.0292 136.746 48.0292 137.153 47.8849C137.48 47.778 137.808 47.6711 138.146 47.561C138.406 47.4729 138.665 47.3849 138.933 47.2942C139.645 47.2561 139.645 47.2561 140.32 47.6944C141.217 49.0304 141.239 50.2987 140.999 51.8542C140.766 52.946 140.502 54.0253 140.226 55.1067C140.14 55.4722 140.053 55.8377 139.964 56.2143C139.41 58.4402 138.675 60.3684 137.569 62.3729C137.14 63.129 137.14 63.129 137.546 64.0244C139.591 65.064 142.873 64.3416 145.042 63.8719C148.517 63.1355 151.852 63.3732 155.349 63.8079C157.596 64.0667 159.822 64.0561 162.08 63.975C164.388 63.9231 166.489 64.3213 168.602 65.2938C169.402 65.574 169.749 65.538 170.53 65.2439C170.387 62.7542 170.229 60.2669 170.025 57.7815C169.498 51.3189 169.14 44.8624 168.892 38.3823C168.85 37.3126 168.806 36.2431 168.761 35.1735C168.741 34.7117 168.723 34.2499 168.707 33.788C168.604 31.0436 168.212 28.577 167.419 25.9527C167.328 25.6269 167.236 25.3011 167.142 24.9655C166.795 23.741 166.795 23.741 166.332 22.561C165.175 22.1688 164.485 22.5035 163.384 22.898ZM63.7831 34.4512C63.14 35.2431 62.5457 36.0661 61.9465 36.8926C60.1001 39.0623 57.3108 40.01 54.7126 40.8918C51.667 41.7844 51.667 41.7844 49.3501 43.8261C49.0213 44.6948 49.0085 45.4158 48.9979 46.3462C48.9903 46.7027 48.9828 47.0591 48.975 47.4264C48.9646 48.1719 48.9552 48.9174 48.9469 49.663C48.8867 52.3834 48.4944 54.2374 47.0852 56.5739C46.2049 58.2894 46.2963 59.8864 46.3976 61.7628C46.3915 62.852 46.2816 63.8315 45.4922 64.6341C43.3456 64.8488 41.9632 64.3709 40.034 63.4134C39.0758 63.0665 38.6409 63.043 37.6961 63.4146C37.2082 63.9357 37.2082 63.9357 36.8715 64.596C36.7494 64.809 36.6272 65.022 36.5014 65.2415C35.8542 66.5425 35.7449 67.7732 35.897 69.2073C36.4378 70.4806 37.1484 71.2131 38.2958 71.9512C38.873 72.1592 39.4546 72.3549 40.0387 72.5419C42.2601 73.2661 43.9606 73.9219 45.1924 76.029C46.0903 78.0443 45.9195 80.1566 45.7921 82.3171C45.4612 82.3969 45.1303 82.4766 44.7894 82.5588C43.5814 82.9463 43.5814 82.9463 42.9435 83.9367C42.7655 84.2604 42.7655 84.2604 42.5839 84.5906C42.294 85.1668 42.0062 85.7442 41.7195 86.3222C39.6598 90.3925 37.6608 91.947 33.5708 93.6404C32.439 94.118 31.4921 94.6982 30.4997 95.4268C30.5257 96.0213 30.5257 96.0213 30.7996 96.6463C31.5044 97.0555 31.5044 97.0555 32.4042 97.3383C32.7481 97.4622 33.092 97.5862 33.4463 97.7139C33.7243 97.8111 33.7243 97.8111 34.0079 97.9104C37.6169 99.1805 41.0739 100.686 44.499 102.401C44.6931 102.498 44.8872 102.595 45.0872 102.695C46.3247 103.315 47.5581 103.943 48.7906 104.573C49.3797 104.873 49.9688 105.172 50.558 105.471C50.9684 105.68 51.3787 105.889 51.7891 106.098C51.7997 104.928 51.787 103.761 51.7703 102.591C51.7752 102.099 51.7752 102.099 51.7803 101.596C51.7432 99.8312 51.6322 98.7331 50.4444 97.3942C50.2563 97.2155 50.0681 97.0368 49.8743 96.8527C49.3903 96.3415 49.3903 96.3415 49.0342 95.1982C49.0904 94.2073 49.0904 94.2073 49.5402 93.4642C50.7384 92.7027 51.8418 92.8673 53.1757 93.1612C54.3929 93.48 55.6038 93.8192 56.8133 94.1668C60.1569 95.0757 63.3521 95.3099 66.4817 93.5976C70.7867 90.6773 71.8585 85.9376 73.1266 81.1359C73.901 78.2052 74.7673 75.5182 76.3908 72.9576C76.9006 71.7064 76.8845 70.6642 76.3986 69.3967C76.0027 68.5486 75.5842 67.7157 75.1586 66.8826C72.0927 60.6061 70.4858 54.0195 69.0878 47.1823C68.1396 42.5487 66.996 38.4368 64.3828 34.4512C64.1849 34.4512 63.987 34.4512 63.7831 34.4512ZM96.5967 38.5194C96.1015 38.9899 96.1015 38.9899 96.1669 39.6341C95.998 39.7194 95.829 39.8047 95.655 39.8926C95.1979 40.1262 94.7426 40.3636 94.2893 40.6048C93.0463 41.2581 91.8491 41.8342 90.5072 42.2447C89.4233 42.5977 88.7069 42.8903 88.0709 43.9024C87.9682 45.5409 88.2124 46.9757 88.5956 48.5518C88.6493 48.7772 88.703 49.0026 88.7583 49.2348C89.2019 51.0452 89.6628 52.8909 90.4697 54.5732C90.6676 54.6738 90.8655 54.7744 91.0694 54.878C91.6429 53.8892 91.7415 53.1207 91.7816 51.9817C91.8644 50.9299 91.9134 50.3983 92.4562 49.4855C93.4655 48.9184 94.1328 48.9206 95.2673 49.0854C96.2783 49.8355 96.6752 50.6358 97.0664 51.8293C97.6531 51.781 97.6531 51.781 98.2658 51.5244C98.6172 50.9097 98.6172 50.9097 98.8468 50.1715C99.3805 48.8423 99.3805 48.8423 100.196 48.2469C101.224 48.145 101.628 48.4969 102.464 49.0854C102.86 49.1988 103.26 49.3027 103.663 49.3902C105.01 47.6038 105.995 46.1413 106.362 43.9024C106.547 43.959 106.733 44.0156 106.924 44.0739C107.574 44.2795 107.574 44.2795 108.161 43.9024C108.366 41.6031 107.635 39.4541 106.614 37.4154C105.784 36.6257 104.863 36.5795 103.776 36.471C103.559 36.4479 103.343 36.4247 103.121 36.4008C100.32 36.144 98.6989 36.5529 96.5967 38.5194ZM111.159 43.2927C110.374 44.4122 110.091 45.398 109.848 46.7416C109.281 49.3582 108.349 51.0923 106.178 52.6522C105.062 53.2708 103.869 53.5918 102.656 53.9622C101.649 54.3512 101.233 54.878 100.665 55.7927C99.5924 56.5714 98.3451 56.5773 97.0664 56.7073C97.2952 56.8771 97.5241 57.0469 97.7598 57.2218C99.0906 58.3861 99.5875 59.6914 100.112 61.3507C100.361 62.0004 100.361 62.0004 101.264 62.5C102.463 62.67 103.673 62.6844 104.881 62.7287C105.215 62.7456 105.55 62.7625 105.894 62.7799C106.213 62.7928 106.531 62.8058 106.86 62.8192C107.152 62.8312 107.445 62.8433 107.746 62.8558C108.517 62.8806 108.517 62.8806 109.06 62.1951C109.277 61.3745 109.459 60.5688 109.623 59.737C109.674 59.4838 109.726 59.2306 109.779 58.9697C110.202 56.8345 110.523 54.6878 110.841 52.5343C111.288 49.5327 111.952 46.7601 112.958 43.9024C113.159 43.293 113.36 42.6834 113.558 42.0732C112.543 42.0732 111.948 42.687 111.159 43.2927ZM126.452 43.5976C124.93 46.3977 123.902 49.3892 122.816 52.3819C122.448 53.3944 122.079 54.4062 121.708 55.4175C121.626 55.6469 121.543 55.8762 121.458 56.1124C120.605 58.4392 120.605 58.4392 119.855 59.4512C118.843 59.5982 118.132 59.6822 117.236 59.132C116.637 58.1925 116.83 57.242 116.931 56.1738C116.947 55.9631 116.963 55.7525 116.98 55.5354C117.059 54.5388 117.171 53.5595 117.317 52.57C117.461 51.487 117.507 50.4447 117.512 49.3521C117.517 48.9929 117.521 48.6337 117.525 48.2636C117.458 47.2834 117.27 46.6122 116.857 45.7317C116.045 46.5571 115.85 47.4879 115.538 48.5816C115.472 48.8106 115.406 49.0395 115.339 49.2754C114.57 52.0623 114.124 54.9014 113.671 57.7553C112.481 65.1673 112.481 65.1673 111.759 66.7683C111.039 67.1342 110.592 67.1081 109.789 67.1029C109.52 67.102 109.252 67.101 108.975 67.1C108.553 67.0961 108.553 67.0961 108.123 67.0922C107.84 67.0908 107.557 67.0895 107.265 67.0881C106.564 67.0844 105.863 67.0794 105.162 67.0732C105.002 67.4525 104.847 67.8341 104.694 68.2165C104.607 68.4287 104.52 68.6409 104.43 68.8596C104.237 69.6135 104.293 70.0086 104.563 70.7317C106.63 72.4142 109.768 73.03 112.251 73.8519C113.684 74.3279 115.105 74.8295 116.519 75.362C116.883 75.4984 117.247 75.6348 117.623 75.7753C118.409 76.1135 119.032 76.4466 119.745 76.9019C120.682 77.4972 120.682 77.4972 121.546 77.4557C122.5 77.0224 122.995 76.4494 123.678 75.6479C123.807 75.4975 123.937 75.3471 124.07 75.1922C124.469 74.7253 124.861 74.2539 125.252 73.7805C125.593 73.3702 125.593 73.3702 125.941 72.9516C126.621 72.1178 127.288 71.2746 127.951 70.4268C128.192 70.123 128.433 69.8192 128.681 69.5062C132.358 64.8098 134.9 59.8846 136.946 54.2683C136.749 54.2683 136.551 54.2683 136.347 54.2683C135.949 54.8497 135.579 55.451 135.222 56.0594C135.115 56.2378 135.009 56.416 134.899 56.5998C134.393 57.4467 133.915 58.2952 133.464 59.1737C133.065 59.9362 132.701 60.6236 132.149 61.2805C131.006 61.4901 131.006 61.4901 130.05 61.2805C129.75 60.9756 129.75 60.9756 129.684 59.9109C129.705 58.4384 130.063 57.15 130.5 55.7546C130.578 55.496 130.657 55.2375 130.738 54.9711C132.999 47.6619 132.999 47.6619 134.248 45.1219C133.255 45.3471 133.255 45.3471 132.793 46.3888C132.584 46.8145 132.379 47.2419 132.177 47.6705C132.067 47.8966 131.958 48.1226 131.844 48.3555C131.493 49.0801 131.146 49.8067 130.8 50.5335C130.452 51.2556 130.104 51.9772 129.755 52.6985C129.538 53.1476 129.322 53.5972 129.107 54.0474C127.934 56.491 127.934 56.491 127.351 57.3171C125.542 57.769 125.542 57.769 124.653 57.3171C124.523 55.0314 124.975 53.2936 125.702 51.1433C126.537 48.5458 127.078 46.3465 126.752 43.5976C126.653 43.5976 126.554 43.5976 126.452 43.5976ZM82.0927 52.5152C81.8857 52.5777 81.6787 52.6402 81.4654 52.7046C79.7992 53.2345 78.3572 53.8882 77.3138 55.3735C76.9337 56.0559 76.9337 56.0559 76.9765 56.7073C76.4817 56.8079 75.987 56.9085 75.4772 57.0122C75.6043 57.5087 75.7364 58.0039 75.8708 58.4985C75.9438 58.7744 76.0169 59.0503 76.0921 59.3345C76.3368 60.1589 76.3368 60.1589 77.2763 60.6707C80.3393 61.3854 85.2909 62.2962 88.0897 60.5183C88.3803 60.2668 88.671 60.0152 88.9705 59.7561C88.848 58.7602 88.5711 57.9992 88.1084 57.1265C87.4458 55.8474 87.1114 54.5486 86.7848 53.1464C86.616 52.3888 86.616 52.3888 85.972 51.8293C84.6087 51.6563 83.3775 52.1004 82.0927 52.5152ZM89.7505 63.136C89.1782 63.8315 89.0757 64.354 88.9705 65.2439C90.0327 66.4347 90.0327 66.4347 91.504 66.8231C92.8274 66.6984 94.0996 66.5269 95.2673 65.8537C95.634 65.0388 95.634 65.0388 95.7921 64.0816C95.8918 63.607 95.8918 63.607 95.9935 63.1229C96.0793 62.6636 96.0793 62.6636 96.1669 62.1951C96.2527 61.7595 96.2527 61.7595 96.3402 61.315C96.382 61.1024 96.4237 60.8898 96.4667 60.6707C93.6271 60.494 91.9116 61.278 89.7505 63.136ZM79.3753 65.5488C79.8125 66.8873 79.8125 66.8873 80.3064 68.2046C80.467 68.6066 80.467 68.6066 80.6309 69.0168C80.795 69.4165 80.795 69.4165 80.9624 69.8242C81.4538 71.9279 80.7942 73.5143 79.825 75.343C78.2445 78.5198 77.3616 81.9167 76.4002 85.3242C73.7292 94.7705 73.7292 94.7705 69.4123 97.3502C66.3514 98.8513 63.1849 98.8624 59.8475 98.8186C59.4423 98.8155 59.037 98.8127 58.6317 98.8103C57.6501 98.8031 56.6686 98.7931 55.6871 98.7805C55.683 99.2124 55.6801 99.6443 55.6777 100.076C55.676 100.317 55.6743 100.557 55.6725 100.805C55.6859 101.465 55.7442 102.092 55.837 102.744C56.1351 105.024 56.1543 106.546 55.0406 108.584C54.7232 109.191 54.7232 109.191 54.7688 110.118C55.2485 111.409 56.0831 112.104 57.1418 112.937C58.6212 114.129 58.6212 114.129 58.9855 115.263C58.9855 116.121 58.8628 116.848 58.6856 117.683C59.0242 117.6 59.0242 117.6 59.3696 117.515C61.1703 117.082 62.9543 116.701 64.7798 116.392C67.8086 115.841 70.6662 114.814 73.5694 113.8C76.4637 112.794 79.3107 111.941 82.3268 111.395C84.0079 111.079 84.0079 111.079 85.3723 110.061C85.7013 109.208 85.7013 109.208 85.9157 108.232C86.5803 105.851 87.7293 104.011 89.1883 102.047C90.726 99.852 91.4204 97.5287 92.212 94.9764C92.8935 92.8151 93.6953 90.7708 94.6489 88.7195C97.6481 82.23 101.107 74.408 100.964 67.0732C100.447 66.782 100.447 66.782 99.7651 66.7683C99.0277 67.4156 99.0277 67.4156 98.2658 68.2927C97.9215 68.6227 97.5714 68.9465 97.2163 69.2645C97.0525 69.4134 96.8886 69.5624 96.7197 69.7158C94.6096 71.2659 91.751 70.9584 89.2703 70.7317C87.1477 70.2806 85.2413 69.1034 83.873 67.378C83.5762 66.4726 83.5762 66.4726 83.2733 65.5488C81.987 65.5488 80.7006 65.5488 79.3753 65.5488ZM26.4517 101.62C25.3696 102.802 24.8096 104.208 24.5027 105.793C24.9982 106.762 24.9982 106.762 25.8209 106.915C26.1153 106.957 26.4096 107 26.7129 107.043C27.0376 107.091 27.3622 107.138 27.6967 107.188C29.2356 107.386 30.7751 107.569 32.3175 107.736C35.5613 108.098 38.7832 108.558 42.0042 109.091C42.3257 109.142 42.6473 109.193 42.9786 109.246C43.2619 109.293 43.5452 109.34 43.837 109.388C44.5788 109.45 45.0894 109.379 45.7921 109.146C45.613 109.061 45.4339 108.975 45.2494 108.887C44.3989 108.479 43.5493 108.07 42.6998 107.66C42.3871 107.509 42.0744 107.359 41.7522 107.203C39.7738 106.242 37.8391 105.224 35.9157 104.154C31.3229 101.533 31.3229 101.533 26.4517 101.62Z" fill="#666666"/>
</g>
<defs>
<clipPath id="clip0_1_726">
<rect width="200" height="200" fill="white"/>
</clipPath>
</defs>
</svg>
