<svg width="100" height="100" viewBox="0 0 100 100" fill="none" xmlns="http://www.w3.org/2000/svg">
<path d="M44.1719 12.5H56.5625V69.2781C51.2734 70.3636 45.8899 70.9236 40.4906 70.95C25.3594 70.9344 17.4844 64.175 17.4844 51.1937C17.4844 38.6938 25.8375 30.5687 38.7844 30.5687C40.6002 30.5333 42.4124 30.7436 44.1719 31.1938V12.5ZM44.1719 41.0688C42.8248 40.6244 41.4119 40.413 39.9938 40.4438C33.7438 40.4438 30.1094 44.2656 30.1094 50.9625C30.1094 57.4844 33.5688 61.0844 39.9156 61.0844C41.3401 61.084 42.7626 60.9796 44.1719 60.7719V41.0844V41.0688Z" fill="#666666"/>
<path d="M76.25 31.4344V59.8719C76.25 69.6625 75.5156 74.3687 73.3656 78.4281C71.1714 82.5556 67.5834 85.7704 63.2406 87.5L51.7469 82.0844C55.9225 80.6545 59.4197 77.7273 61.5625 73.8688C63.3313 70.3656 63.8906 66.3063 63.8906 55.6281V31.4344H76.25ZM63.8781 12.5625H76.2656V25.15H63.8781V12.5625Z" fill="#666666"/>
</svg>
