<svg width="100" height="100" viewBox="0 0 100 100" fill="none" xmlns="http://www.w3.org/2000/svg">
<path d="M75 37.5C77.6235 35.5324 79.5615 32.7891 80.5393 29.6589C81.5171 26.5286 81.4852 23.1701 80.4482 20.0589C79.4111 16.9478 77.4215 14.2418 74.7611 12.3243C72.1007 10.4068 68.9044 9.375 65.625 9.375H37.5C34.2206 9.375 31.0243 10.4068 28.3639 12.3243C25.7035 14.2418 23.7139 16.9478 22.6768 20.0589C21.6398 23.1701 21.6079 26.5286 22.5857 29.6589C23.5635 32.7891 25.5015 35.5324 28.125 37.5C26.1386 38.9887 24.5355 40.9292 23.4484 43.1608C22.3613 45.3924 21.8216 47.8509 21.8739 50.3327C21.9262 52.8145 22.569 55.2481 23.7492 57.4319C24.9293 59.6157 26.6128 61.487 28.6602 62.8906C26.3314 64.6612 24.4931 66.9968 23.3193 69.6763C22.1455 72.3559 21.675 75.2907 21.9525 78.2029C22.2299 81.1152 23.2461 83.9083 24.9048 86.318C26.5635 88.7277 28.8098 90.6742 31.431 91.9731C34.0522 93.272 36.9616 93.8804 39.8836 93.7407C42.8057 93.6009 45.6437 92.7176 48.129 91.1745C50.6143 89.6313 52.6645 87.4793 54.0857 84.9223C55.5068 82.3653 56.2517 79.4879 56.25 76.5625V62.5C59.5652 64.9864 63.7324 66.054 67.8347 65.468C71.9371 64.8819 75.6386 62.6902 78.125 59.375C80.6114 56.0598 81.679 51.8927 81.093 47.7903C80.5069 43.6879 78.3152 39.9864 75 37.5ZM75 25C75 27.4864 74.0123 29.871 72.2541 31.6291C70.496 33.3873 68.1114 34.375 65.625 34.375H56.25V15.625H65.625C68.1114 15.625 70.496 16.6127 72.2541 18.3709C74.0123 20.129 75 22.5136 75 25ZM28.125 25C28.125 22.5136 29.1127 20.129 30.8709 18.3709C32.629 16.6127 35.0136 15.625 37.5 15.625H50V34.375H37.5C35.0136 34.375 32.629 33.3873 30.8709 31.6291C29.1127 29.871 28.125 27.4864 28.125 25ZM37.5 59.375C35.0136 59.375 32.629 58.3873 30.8709 56.6291C29.1127 54.871 28.125 52.4864 28.125 50C28.125 47.5136 29.1127 45.129 30.8709 43.3709C32.629 41.6127 35.0136 40.625 37.5 40.625H50V59.375H37.5ZM50 76.5625C50 78.7257 49.3585 80.8404 48.1567 82.6391C46.9549 84.4377 45.2467 85.8396 43.2481 86.6674C41.2495 87.4953 39.0504 87.7119 36.9287 87.2898C34.807 86.8678 32.8582 85.8261 31.3285 84.2965C29.7989 82.7668 28.7572 80.818 28.3352 78.6963C27.9131 76.5746 28.1297 74.3755 28.9576 72.3769C29.7854 70.3783 31.1873 68.6701 32.9859 67.4683C34.7846 66.2665 36.8993 65.625 39.0625 65.625H50V76.5625ZM65.625 59.375C63.7708 59.375 61.9582 58.8252 60.4165 57.795C58.8748 56.7649 57.6732 55.3007 56.9636 53.5877C56.2541 51.8746 56.0684 49.9896 56.4301 48.171C56.7919 46.3525 57.6848 44.682 58.9959 43.3709C60.307 42.0598 61.9775 41.1669 63.796 40.8051C65.6146 40.4434 67.4996 40.6291 69.2127 41.3386C70.9257 42.0482 72.3899 43.2498 73.42 44.7915C74.4502 46.3332 75 48.1458 75 50C75 52.4864 74.0123 54.871 72.2541 56.6291C70.496 58.3873 68.1114 59.375 65.625 59.375Z" fill="#666666"/>
</svg>
