<svg width="32" height="33" viewBox="0 0 32 33" fill="none" xmlns="http://www.w3.org/2000/svg">
<path d="M27.5213 13.0001L25.3575 9.25007C24.8934 8.44644 24.1291 7.86002 23.2328 7.61976C22.3364 7.37949 21.3813 7.50505 20.5775 7.96882C20.1293 8.22782 19.7448 8.58406 19.4525 9.01132L17.275 5.25007C16.9677 4.71851 16.5259 4.27716 15.9941 3.97032C15.4622 3.66348 14.859 3.50195 14.245 3.50195C13.631 3.50195 13.0278 3.66348 12.4959 3.97032C11.9641 4.27716 11.5223 4.71851 11.215 5.25007C10.5758 4.74679 9.78133 4.48189 8.96804 4.50088C8.15474 4.51988 7.37346 4.82159 6.7585 5.35416C6.14353 5.88672 5.73329 6.61688 5.59829 7.41911C5.46329 8.22135 5.61196 9.04556 6.01875 9.75007L6.2175 10.0951C5.70031 10.1352 5.19877 10.2911 4.75 10.5513C3.94625 11.0156 3.35985 11.7802 3.11981 12.6769C2.87976 13.5735 3.00573 14.5288 3.47 15.3326L8.47 23.9976C9.18936 25.2508 10.15 26.349 11.2964 27.2286C12.4427 28.1083 13.7521 28.752 15.1488 29.1226C16.0833 29.3722 17.0465 29.4983 18.0138 29.4976C19.9431 29.4943 21.8376 28.9836 23.5072 28.0168C25.1768 27.05 26.5627 25.6611 27.526 23.9894C28.4892 22.3178 28.9958 20.4222 28.995 18.4929C28.9942 16.5636 28.4859 14.6684 27.5213 12.9976V13.0001ZM26.6888 20.8301C26.2277 22.549 25.2674 24.0928 23.9292 25.266C22.591 26.4393 20.9349 27.1895 19.1704 27.4218C17.4059 27.654 15.6122 27.3579 14.0159 26.5709C12.4197 25.7838 11.0926 24.5412 10.2025 23.0001L5.2025 14.3351C5.01217 13.9911 4.96445 13.5862 5.06961 13.2075C5.17477 12.8287 5.4244 12.5064 5.76481 12.3098C6.10521 12.1132 6.50918 12.0581 6.88979 12.1564C7.27041 12.2546 7.59725 12.4983 7.8 12.8351L10.2038 17.0001C10.2675 17.1174 10.3541 17.2208 10.4584 17.3042C10.5627 17.3875 10.6827 17.4491 10.8112 17.4854C10.9398 17.5216 11.0742 17.5317 11.2067 17.5151C11.3392 17.4985 11.4671 17.4556 11.5827 17.3888C11.6984 17.322 11.7994 17.2327 11.88 17.1262C11.9606 17.0197 12.019 16.8982 12.0518 16.7688C12.0847 16.6393 12.0913 16.5046 12.0712 16.3726C12.0511 16.2406 12.0048 16.1139 11.935 16.0001L7.75 8.75007C7.64721 8.57934 7.57947 8.38984 7.55074 8.19263C7.52201 7.99543 7.53286 7.79448 7.58267 7.60152C7.63247 7.40856 7.72022 7.22745 7.8408 7.06879C7.96138 6.91012 8.11237 6.77707 8.28495 6.67741C8.45752 6.57775 8.64823 6.51348 8.84592 6.48835C9.04362 6.46322 9.24434 6.47774 9.43636 6.53105C9.62838 6.58436 9.80785 6.67541 9.96429 6.79886C10.1207 6.92231 10.251 7.0757 10.3475 7.25007L14.25 14.0001C14.3137 14.1174 14.4003 14.2208 14.5046 14.3042C14.609 14.3875 14.7289 14.4491 14.8575 14.4854C14.986 14.5216 15.1205 14.5317 15.253 14.5151C15.3855 14.4985 15.5133 14.4556 15.629 14.3888C15.7446 14.322 15.8457 14.2327 15.9263 14.1262C16.0068 14.0197 16.0653 13.8982 16.0981 13.7688C16.1309 13.6393 16.1375 13.5046 16.1174 13.3726C16.0974 13.2406 16.0511 13.1139 15.9813 13.0001L12.9463 7.75007C12.8435 7.57934 12.7757 7.38984 12.747 7.19263C12.7183 6.99543 12.7291 6.79448 12.7789 6.60152C12.8287 6.40856 12.9165 6.22745 13.0371 6.06879C13.1576 5.91012 13.3086 5.77707 13.4812 5.67741C13.6538 5.57775 13.8445 5.51348 14.0422 5.48835C14.2399 5.46322 14.4406 5.47774 14.6326 5.53105C14.8246 5.58436 15.0041 5.67541 15.1605 5.79886C15.317 5.92231 15.4473 6.0757 15.5438 6.25007L19.7213 13.4876C18.7482 14.4757 18.1475 15.7703 18.0212 17.1513C17.895 18.5323 18.251 19.9144 19.0288 21.0626C19.1779 21.282 19.4082 21.4333 19.6689 21.4829C19.9295 21.5326 20.1993 21.4768 20.4188 21.3276C20.6382 21.1784 20.7894 20.9481 20.8391 20.6875C20.8888 20.4268 20.8329 20.157 20.6838 19.9376C20.1094 19.087 19.884 18.0483 20.0541 17.0362C20.2242 16.0241 20.7767 15.1162 21.5975 14.5001C21.7931 14.3534 21.9283 14.1401 21.9773 13.9006C22.0264 13.6611 21.986 13.4118 21.8638 13.2001L21.0288 11.7501C20.9226 11.5793 20.8518 11.389 20.8206 11.1903C20.7895 10.9916 20.7986 10.7888 20.8474 10.5937C20.8962 10.3986 20.9838 10.2154 21.1048 10.0548C21.2259 9.89426 21.378 9.75969 21.5521 9.65909C21.7262 9.5585 21.9188 9.49394 22.1184 9.46925C22.3179 9.44456 22.5204 9.46025 22.7138 9.51538C22.9072 9.57051 23.0875 9.66396 23.244 9.79018C23.4005 9.91639 23.5301 10.0728 23.625 10.2501L25.7888 14.0001C26.3824 15.0222 26.7676 16.1518 26.9221 17.3237C27.0766 18.4956 26.9973 19.6865 26.6888 20.8276V20.8301ZM23.0313 4.46382C23.0985 4.20774 23.2646 3.9888 23.4931 3.855C23.7215 3.7212 23.9938 3.68346 24.25 3.75007C25.2051 4.00177 26.1006 4.44081 26.8845 5.04166C27.6684 5.64252 28.325 6.3932 28.8163 7.25007L28.8575 7.32132C28.9273 7.43515 28.9736 7.56182 28.9937 7.69384C29.0138 7.82586 29.0072 7.96057 28.9743 8.09C28.9415 8.21944 28.8831 8.34099 28.8025 8.44749C28.7219 8.55398 28.6209 8.64325 28.5052 8.71005C28.3896 8.77684 28.2617 8.81979 28.1292 8.83638C27.9967 8.85296 27.8623 8.84284 27.7337 8.80661C27.6052 8.77038 27.4852 8.70877 27.3809 8.62542C27.2766 8.54207 27.19 8.43867 27.1263 8.32132L27.085 8.25007C26.7245 7.6221 26.2426 7.07214 25.6675 6.63221C25.0924 6.19227 24.4354 5.87116 23.735 5.68757C23.4797 5.61819 23.2622 5.45045 23.1303 5.22108C22.9984 4.9917 22.9628 4.7194 23.0313 4.46382ZM10.1113 30.1251C9.94708 30.3332 9.707 30.4676 9.44379 30.4987C9.18057 30.5299 8.91574 30.4553 8.7075 30.2913C7.21181 29.1099 5.95591 27.6533 5.0075 26.0001C4.94184 25.8863 4.89923 25.7607 4.8821 25.6305C4.86497 25.5003 4.87366 25.368 4.90767 25.2411C4.94168 25.1142 5.00034 24.9953 5.08031 24.8911C5.16028 24.7869 5.25999 24.6995 5.37375 24.6338C5.48751 24.5682 5.61309 24.5255 5.74331 24.5084C5.87354 24.4913 6.00586 24.5 6.13273 24.534C6.2596 24.568 6.37853 24.6267 6.48272 24.7066C6.58692 24.7866 6.67434 24.8863 6.74 25.0001C7.56202 26.4312 8.64985 27.6921 9.945 28.7151C10.0489 28.7964 10.1357 28.8975 10.2004 29.0126C10.2651 29.1277 10.3063 29.2544 10.3218 29.3854C10.3372 29.5165 10.3266 29.6494 10.2905 29.7763C10.2543 29.9032 10.1934 30.0218 10.1113 30.1251Z" fill="black"/>
</svg>
