<svg width="100" height="100" viewBox="0 0 100 100" fill="none" xmlns="http://www.w3.org/2000/svg">
<path d="M9.0708 88.4615L0 0H99.7788L90.708 88.4615L49.7788 98.4615" fill="#666666" fill-opacity="0.9"/>
<path d="M50 90.7692L82.9646 82.8846L90.708 7.11539H50" fill="#3CA2F1"/>
<path d="M50 40H33.4071L32.3009 28.8461H50V18.0769H18.584L21.9026 50.9615H50V40ZM50 68.2692L35.8407 65L34.9557 56.3461H22.5663L24.115 73.4615L50 79.6154V68.2692Z" fill="#ECEDEE"/>
<path d="M50 50.9615H65.2655L63.7168 65L50 68.2692V79.6154L75.4425 73.4615L78.9823 40H50V50.9615ZM50 18.0769V28.8461H80.0885L81.1947 18.0769H50Z" fill="white"/>
</svg>
