<svg width="100" height="100" viewBox="0 0 100 100" fill="none" xmlns="http://www.w3.org/2000/svg">
<g clip-path="url(#clip0_1_554)">
<path d="M0 0H100V100H0V0Z" fill="#666666"/>
<path d="M91.8156 76.1502C91.0836 71.5874 88.1084 67.7567 79.2966 64.1825C76.2357 62.7757 72.8232 61.7682 71.8061 59.4487C71.4449 58.0989 71.3973 57.3384 71.6255 56.5209C72.2814 53.8688 75.4468 53.0418 77.9563 53.8023C79.5722 54.3441 81.1027 55.5894 82.0247 57.576C86.3403 54.7815 86.3308 54.8004 89.3441 52.8803C88.2414 51.1693 87.6521 50.3802 86.9297 49.6484C84.3346 46.7491 80.7985 45.2567 75.1426 45.3708C74.1635 45.4944 73.175 45.6274 72.1958 45.751C69.3727 46.464 66.6825 47.9469 65.1046 49.9336C60.3707 55.3043 61.7205 64.7053 67.481 68.5742C73.1559 72.8328 81.4924 73.8024 82.557 77.7853C83.5932 82.6617 78.9735 84.2395 74.3821 83.6788C70.9981 82.9754 69.1161 81.2548 67.0817 78.1275C63.3366 80.2948 63.3366 80.2948 59.4868 82.5096C60.3993 84.5058 61.3593 85.4088 62.8898 87.1389C70.1332 94.4868 88.2605 94.1256 91.5115 83.0039C91.6445 82.6236 92.5191 80.076 91.8156 76.1502ZM54.3631 45.9601H45.0095C45.0095 54.0399 44.9716 62.0627 44.9716 70.1426C44.9716 75.2852 45.2377 80 44.4012 81.4449C43.0324 84.287 39.4868 83.9354 37.8708 83.3839C36.2263 82.5759 35.3898 81.4258 34.4202 79.8004C34.1541 79.3346 33.9545 78.9734 33.8878 78.9449C31.3499 80.4943 28.8213 82.0531 26.2833 83.6027C27.5476 86.1977 29.4106 88.4506 31.7966 89.9143C35.3612 92.0531 40.1521 92.709 45.1617 91.5588C48.4221 90.6083 51.2357 88.6407 52.7091 85.6464C54.8384 81.7205 54.3821 76.9677 54.3631 71.711C54.4106 63.1369 54.3631 54.5627 54.3631 45.9601Z" fill="#3CA2F1"/>
</g>
<defs>
<clipPath id="clip0_1_554">
<rect width="100" height="100" fill="white"/>
</clipPath>
</defs>
</svg>
