<svg width="100" height="100" viewBox="0 0 100 100" fill="none" xmlns="http://www.w3.org/2000/svg">
<g clip-path="url(#clip0_1_546)">
<path d="M32.4219 77.1676C32.4219 77.1676 26.9531 79.4798 35.9375 80.3468C46.4844 81.2139 51.9531 80.9249 63.6719 79.4798C63.6719 79.4798 66.7969 80.9249 71.0937 82.0809C44.9219 90.4624 11.3281 81.5029 32.4219 77.1676ZM28.9062 66.474C28.9062 66.474 23.0469 69.6532 32.0312 70.2312C43.3594 71.0983 52.3437 71.0983 67.9687 69.0752C67.9687 69.0752 70.3125 70.5202 73.8281 71.3873C41.7969 78.3237 6.24999 71.9653 28.9062 66.474Z" fill="#666666"/>
<path d="M56.25 47.9769C62.8906 53.4682 54.6875 58.3815 54.6875 58.3815C54.6875 58.3815 71.0937 52.0231 63.2812 44.2197C56.25 36.7052 50.7812 33.237 80.4687 20.5202C80.4687 20.5202 33.9844 28.9017 56.25 47.9769Z" fill="#3CA2F1"/>
<path d="M90.839 85.267C90.839 85.267 94.7452 87.5792 86.9327 89.6023C71.6984 93.0705 23.2609 93.9376 9.97961 89.6023C5.29211 88.1572 14.2765 85.8451 17.0109 85.5561L21.6984 84.978C16.2296 82.3769 -13.0673 90.4694 6.85461 93.0705C60.7609 99.4289 104.901 90.1803 90.839 85.267ZM34.589 54.9202C34.589 54.9202 9.97961 59.2555 25.9952 60.9896C32.6359 61.5676 45.9171 61.5676 58.4171 60.7006C68.5734 60.1225 78.7296 58.6775 78.7296 58.6775L72.4796 61.2786C47.4796 65.9029 -0.567266 63.5907 13.4952 58.6775C25.214 54.6312 34.589 54.9202 34.589 54.9202ZM78.7296 73.1283C103.73 63.5907 92.0109 54.0532 83.8077 55.4983L81.0734 56.0763C81.0734 56.0763 81.8546 55.2092 83.4171 54.6312C99.4327 50.585 111.933 67.059 77.9484 73.7064L78.7296 73.1283Z" fill="#666666"/>
<path d="M63.2812 0C63.2812 0 77.3437 10.4046 50 26.3006C28.125 39.3064 45.3125 46.5318 50 54.9133C37.5 46.2428 28.125 38.7283 34.375 31.7919C43.3594 21.6763 69.1406 16.474 63.2812 0Z" fill="#3CA2F1"/>
<path d="M37.1094 99.711C61.3281 100.867 98.8281 98.8439 99.6094 90.4624C99.6094 90.4624 98.0469 93.6416 79.6875 96.2428C58.9844 99.1329 33.2031 98.8439 17.9688 96.8208C17.9688 96.8208 21.0938 98.8439 37.1094 99.711Z" fill="#666666"/>
</g>
<defs>
<clipPath id="clip0_1_546">
<rect width="100" height="100" fill="white"/>
</clipPath>
</defs>
</svg>
