<svg width="124" height="83" viewBox="0 0 124 83" fill="none" xmlns="http://www.w3.org/2000/svg">
<path d="M69.8795 10.0677C73.3847 11.8698 76.8274 13.6406 80.0774 15.4427C83.3222 17.2448 86.4055 19.0521 89.2545 20.8542C92.4055 22.8542 95.3222 24.8854 98.0462 26.9531C100.765 29.0521 103.223 31.1823 105.421 33.3438C108.01 35.901 110.208 38.526 112.046 41.25C113.88 43.9688 115.359 46.7917 116.505 49.8073C117.978 53.6771 118.833 58.0677 119.093 63.3802C119.359 68.6615 118.963 74.8594 117.947 82.2031L118.109 82.2344C119.13 74.8906 119.489 68.6927 119.26 63.3802C118.994 58.0677 118.145 53.6406 116.666 49.7708C115.52 46.7552 114.01 43.9062 112.176 41.1823C110.338 38.4635 108.109 35.8385 105.52 33.2812C103.322 31.0833 100.833 28.9531 98.1087 26.8542C95.3899 24.7552 92.4368 22.724 89.3222 20.7552C86.468 18.9531 83.3847 17.1458 80.1087 15.3438C76.8639 13.5417 73.4524 11.7708 69.9108 9.96875L69.843 10.1302L69.8795 10.0677Z" fill="#666666" fill-opacity="0.9"/>
<mask id="mask0_654_334" style="mask-type:luminance" maskUnits="userSpaceOnUse" x="34" y="0" width="40" height="12">
<path d="M73.3329 0H34.6663V11.6979H73.3329V0Z" fill="white"/>
</mask>
<g mask="url(#mask0_654_334)">
<path d="M35.6456 1.14583L39.6821 2.26042C41.8123 2.85417 43.9113 3.41146 45.9738 3.96875L55.6144 6.625C57.3852 7.11458 59.255 7.64062 61.0935 8.13021L64.6665 9.11458C66.729 9.67188 68.8279 10.2604 70.8956 10.8177L73.1925 11.4427L73.2238 11.2812L70.9269 10.6562C68.8956 10.099 66.8644 9.54167 64.6977 8.95312L61.1248 7.96875C59.354 7.47396 57.5519 6.98438 55.6456 6.45833L46.0102 3.80208C43.9425 3.24479 41.8435 2.65625 39.7133 2.09896L35.6821 0.984375L35.6456 1.14583Z" fill="#666666" fill-opacity="0.9"/>
</g>
<path d="M68.0096 9.54183C71.52 11.3439 74.9627 13.1147 78.2075 14.9168C81.4523 16.7241 84.5357 18.5262 87.3898 20.3283C90.5044 22.297 93.4523 24.3283 96.1086 26.4272C98.7961 28.495 101.223 30.6252 103.39 32.8231C105.911 35.3804 108.046 38.0002 109.78 40.6929C111.52 43.4116 112.895 46.2345 113.879 49.2502C115.161 53.12 115.749 57.5783 115.65 62.922C115.551 68.2658 114.765 74.5314 113.223 82.0054L113.39 82.0366C114.931 74.5627 115.718 68.297 115.817 62.9533C115.916 57.5783 115.291 53.12 114.046 49.2502C113.062 46.1981 111.687 43.3804 109.947 40.6564C108.208 37.9377 106.046 35.3127 103.52 32.7554C101.353 30.5575 98.9315 28.4272 96.2388 26.3595C93.5513 24.2658 90.6346 22.2293 87.4836 20.2658C84.6346 18.4585 81.5513 16.6564 78.3065 14.8543C75.0565 13.0522 71.6502 11.2814 68.1086 9.47412L68.0409 9.64079L68.0096 9.54183Z" fill="#666666" fill-opacity="0.9"/>
<path d="M40.5305 3.73942L41.942 4.0988C45.0253 4.9165 48.0097 5.70296 50.9941 6.52588C54.0097 7.34359 57.0253 8.1613 59.942 8.95296L65.2857 10.3957C66.8951 10.8175 68.4368 11.2446 69.7805 11.6092C71.2545 11.9998 72.8274 12.4269 74.3378 12.854C75.6139 13.2134 76.8951 13.5728 78.2701 13.9321L78.3066 13.7707C77.0566 13.4425 75.7493 13.0519 74.3691 12.6873C72.8951 12.2967 71.3847 11.8696 69.8118 11.4425C68.2076 11.0155 66.7285 10.5884 65.3222 10.229L59.9732 8.7863C57.0878 7.99984 54.1087 7.18213 51.0253 6.35921C48.1087 5.57275 45.0878 4.7863 41.9732 3.93213L40.567 3.57275L40.5305 3.73942Z" fill="#666666" fill-opacity="0.9"/>
<path d="M66.1081 9.01546C69.6133 10.8175 73.056 12.5884 76.306 14.3957C79.5508 16.1978 82.6342 17.9998 85.4519 19.8019C88.5665 21.7707 91.4831 23.8019 94.1394 25.9009C96.7956 27.9686 99.1915 30.0988 101.29 32.2655C103.749 34.8228 105.816 37.4113 107.452 40.1353C109.092 42.854 110.306 45.6769 111.124 48.6925C112.176 52.5936 112.504 57.0519 112.046 62.4634C111.587 67.8748 110.337 74.203 108.238 81.7759L108.405 81.8071C110.504 74.203 111.749 67.8748 112.207 62.4634C112.665 57.0519 112.337 52.5259 111.29 48.6248C110.473 45.578 109.223 42.755 107.587 40.0363C105.947 37.3123 103.879 34.6925 101.421 32.13C99.3217 29.9686 96.931 27.8384 94.2748 25.7394C91.6185 23.6717 88.6967 21.6405 85.5821 19.6405C82.7331 17.8384 79.6498 16.0311 76.405 14.229C73.155 12.4269 69.7487 10.6561 66.2071 8.854L66.1394 9.01546H66.1081Z" fill="#666666" fill-opacity="0.9"/>
<path d="M44.9579 6.26058C46.7965 6.71891 48.5673 7.2137 50.3382 7.67204C52.0725 8.13037 53.8121 8.5887 55.5517 9.04704C57.2236 9.47412 58.859 9.93245 60.4996 10.3595C62.109 10.7866 63.7132 11.2137 65.3225 11.6408C66.8277 12.0679 68.3694 12.4585 69.9111 12.8856C71.7496 13.3752 73.0934 13.7397 74.4059 14.0991C75.8486 14.495 77.2913 14.8856 78.6975 15.2814C80.0777 15.672 81.484 16.0314 82.8954 16.4272L82.9267 16.2606C81.5829 15.9012 80.1767 15.5106 78.734 15.1147C77.3225 14.7241 75.8798 14.3283 74.4371 13.9325C72.7965 13.4741 71.1559 13.0522 69.9423 12.7241C68.4371 12.3283 66.9267 11.9012 65.3538 11.4741C63.7809 11.047 62.1715 10.6252 60.5361 10.1981C58.8954 9.771 57.2548 9.31266 55.5829 8.88558C53.8798 8.42725 52.1402 7.96891 50.3694 7.51058C48.5986 7.04704 46.7965 6.58871 44.9892 6.09912L44.9579 6.26058Z" fill="#666666" fill-opacity="0.9"/>
<path d="M64.1707 8.48958C67.7124 10.2969 71.1239 12.099 74.3374 13.8698C77.5822 15.6719 80.6343 17.4427 83.452 19.2448C86.5666 21.2135 89.452 23.2448 92.077 25.3438C94.6968 27.4115 97.0614 29.5417 99.0926 31.7083C101.488 34.2656 103.452 36.8542 104.994 39.5781C106.535 42.2969 107.619 45.1198 108.238 48.1354C109.093 52.0365 109.124 56.5625 108.275 62.0365C107.421 67.5104 105.718 73.9062 103.025 81.6094L103.192 81.6771C105.879 73.974 107.619 67.5469 108.436 62.0677C109.291 56.5938 109.259 52.0677 108.405 48.1354C107.749 45.0833 106.666 42.2656 105.124 39.5417C103.587 36.8229 101.619 34.1979 99.2228 31.6406C97.1916 29.4792 94.8322 27.3438 92.176 25.2448C89.551 23.1823 86.6343 21.1458 83.551 19.1458C80.7332 17.3438 77.6499 15.5417 74.4051 13.7396C71.1551 11.9323 67.7489 10.1615 64.2072 8.35938L64.1395 8.52604L64.1707 8.48958Z" fill="#666666" fill-opacity="0.9"/>
<path d="M48.9264 8.71859C50.8951 9.21338 52.7962 9.70296 54.4003 10.13C56.1712 10.5884 57.942 11.0467 59.7128 11.5103C61.3847 11.9321 63.0566 12.3957 64.7285 12.8175C66.3691 13.2446 68.0097 13.6717 69.6139 14.13C71.1555 14.5571 72.6972 14.953 74.2389 15.3748C75.7493 15.7707 77.2545 16.1978 78.7649 16.5884C80.3066 17.0155 81.7128 17.4113 83.0618 17.7707C84.4368 18.1665 85.8482 18.5259 87.2545 18.9165L87.291 18.755C85.9472 18.3957 84.5357 17.9998 83.093 17.6092C81.5826 17.1821 80.1399 16.7863 78.7962 16.4269C77.3222 16.0311 75.8482 15.6092 74.2701 15.2134C72.7649 14.8175 71.2232 14.3957 69.6503 13.9686C68.041 13.5415 66.4368 13.1144 64.7649 12.6561C63.1243 12.229 61.4524 11.7707 59.7441 11.3436C58.0097 10.8853 56.2389 10.4269 54.4368 9.96859C52.4368 9.44255 50.6972 9.01546 48.9576 8.55713L48.9264 8.71859Z" fill="#666666" fill-opacity="0.9"/>
<path d="M62.239 7.93245C65.7442 9.73975 69.1557 11.5418 72.4005 13.3127C75.6505 15.1147 78.6974 16.8856 81.5203 18.6877C84.5984 20.6564 87.4838 22.6877 90.0776 24.7554C92.6661 26.8231 94.9942 28.9533 96.963 31.0835C99.2911 33.6408 101.161 36.2293 102.567 38.9533C103.979 41.672 104.932 44.495 105.39 47.5106C106.01 51.4481 105.718 56.0054 104.468 61.5106C103.223 67.021 100.994 73.5106 97.6817 81.3491L97.8484 81.4168C101.161 73.5783 103.39 67.0887 104.635 61.547C105.88 56.0054 106.145 51.4481 105.552 47.4793C105.093 44.4272 104.145 41.6095 102.734 38.8543C101.322 36.1356 99.4526 33.5106 97.0932 30.9533C95.1244 28.7866 92.7963 26.6564 90.2078 24.5939C87.6192 22.5262 84.7338 20.495 81.6505 18.5262C78.8276 16.7241 75.7807 14.9168 72.5359 13.1147C69.2859 11.3127 65.8797 9.54183 62.3692 7.73975L62.3015 7.9012L62.239 7.93245Z" fill="#666666" fill-opacity="0.9"/>
<path d="M52.3694 11.1823C54.2704 11.6406 56.109 12.1302 57.9423 12.5885C59.8121 13.0521 61.6142 13.5104 63.3538 13.9688C65.0569 14.3958 66.7652 14.8542 68.4371 15.2812C70.0777 15.7031 71.7496 16.1667 73.385 16.5885C74.9632 17.0156 76.4996 17.4115 78.0777 17.8385C79.6142 18.2604 81.1246 18.6562 82.635 19.0521C84.1402 19.474 85.5829 19.8385 86.9632 20.2292C88.4059 20.625 89.8121 21.0156 91.1923 21.3802L91.2236 21.2135C89.8486 20.8229 88.4371 20.4271 86.9944 20.0677C85.5204 19.6719 84.0777 19.2812 82.6663 18.8854C81.1559 18.4948 79.6507 18.0677 78.109 17.6719C76.5986 17.2812 75.0257 16.8542 73.4215 16.4271C71.8121 16 70.1715 15.5729 68.4684 15.1146C66.7965 14.6875 65.1246 14.2292 63.385 13.8021C61.5829 13.3438 59.7809 12.8854 57.9736 12.4271C56.1402 11.9688 54.2704 11.5104 52.4007 11.0156L52.3694 11.1823Z" fill="#666666" fill-opacity="0.9"/>
<path d="M60.2395 7.37484C63.7447 9.18213 67.1561 10.9842 70.4009 12.755C73.6145 14.5571 76.6666 16.328 79.4843 18.13C82.5676 20.0988 85.4218 22.13 87.9791 24.1978C90.5364 26.2655 92.7968 28.3644 94.6978 30.5259C96.9634 33.0832 98.7343 35.6717 100.047 38.3957C101.323 41.1144 102.109 43.9373 102.406 46.953C102.766 50.8905 102.177 55.479 100.505 61.0519C98.8332 66.6248 96.078 73.2186 92.1093 81.1509L92.2759 81.2186C96.2395 73.2811 98.9947 66.6925 100.667 61.0832C102.338 55.479 102.963 50.8905 102.604 46.9217C102.338 43.8696 101.521 41.0519 100.239 38.2967C98.9634 35.578 97.1614 32.953 94.8957 30.3957C92.9634 28.229 90.6978 26.0988 88.1405 24.0311C85.5832 21.9686 82.7343 19.9373 79.6509 17.9686C76.828 16.1665 73.7811 14.3592 70.5676 12.5571C67.3541 10.755 63.9426 8.95296 60.4009 7.18213L60.3384 7.34359L60.2395 7.37484Z" fill="#666666" fill-opacity="0.9"/>
<path d="M55.3222 13.6408C57.2545 14.1304 59.1868 14.5887 61.0566 15.0522C62.9264 15.5106 64.7649 15.9689 66.5982 16.4272C68.4003 16.8856 70.1399 17.3127 71.8118 17.7397C73.4837 18.1668 75.192 18.6252 76.8639 19.0522C78.468 19.4741 80.041 19.9012 81.6191 20.297C83.1555 20.6877 84.6972 21.1147 86.2389 21.5418C87.7128 21.9377 89.1555 22.3283 90.6347 22.7241C92.2076 23.1512 93.6191 23.5418 94.8951 23.9012L94.9316 23.7397C93.4212 23.3127 91.9472 22.9168 90.666 22.5575C89.2545 22.1668 87.7805 21.771 86.2701 21.3804C84.7649 20.9845 83.2545 20.5575 81.6503 20.1304C80.0774 19.7033 78.4993 19.2814 76.8951 18.8856C75.2545 18.4585 73.5826 18.0314 71.843 17.5731C70.1087 17.1147 68.3691 16.6877 66.6295 16.2293C64.8274 15.771 62.9941 15.3127 61.093 14.8543C59.2232 14.396 57.2857 13.9012 55.3535 13.4429L55.3222 13.6095V13.6408Z" fill="#666666" fill-opacity="0.9"/>
<path d="M58.2394 6.81771C61.7446 8.625 65.156 10.4271 68.3696 12.2292C71.5831 14.0312 74.6352 15.8021 77.4216 17.6094C80.4685 19.5729 83.3227 21.6094 85.8487 23.6719C88.3696 25.7396 90.5987 27.8385 92.4373 30C94.6039 32.5573 96.3071 35.151 97.4529 37.8385C98.6039 40.5573 99.2237 43.3802 99.2914 46.3958C99.3904 50.3646 98.4373 54.9844 96.3383 60.625C94.2081 66.2656 90.8956 72.9219 86.2706 80.9583L86.406 81.0521C91.0258 72.9896 94.3383 66.3333 96.4685 60.6927C98.6039 55.0521 99.5519 50.3958 99.4529 46.4271C99.3904 43.3802 98.7341 40.5573 97.5831 37.8073C96.4373 35.0833 94.7341 32.4583 92.5362 29.901C90.6664 27.7396 88.4685 25.6406 85.9112 23.5729C83.3852 21.5104 80.5362 19.5104 77.4841 17.5104C74.6977 15.7031 71.6508 13.901 68.4373 12.1302C65.2237 10.3281 61.8123 8.52604 58.3019 6.71875L58.2394 6.88542V6.81771Z" fill="#666666" fill-opacity="0.9"/>
<path d="M57.8115 16.1302C59.8115 16.625 61.7802 17.0833 63.7125 17.5417C65.65 18 67.551 18.4948 69.4521 18.9531C71.2229 19.4115 73.025 19.8385 74.7958 20.2969C76.5979 20.7552 78.3063 21.1823 79.9781 21.6094C81.6188 22.0312 83.2229 22.4583 84.8271 22.8854C86.4365 23.3125 88.0094 23.7396 89.551 24.1302C91.025 24.526 92.5354 24.9167 94.0094 25.3438C95.551 25.7708 96.9938 26.1667 98.374 26.526L98.4052 26.3594C96.9313 25.9688 95.4521 25.5729 94.0458 25.1823C92.6031 24.7865 91.0927 24.3958 89.5823 23.9688C88.0406 23.5417 86.4677 23.151 84.8635 22.724C83.2906 22.2969 81.65 21.8698 80.0094 21.4427C78.2698 20.9844 76.5354 20.5573 74.8271 20.1302C73.0927 19.7031 71.3219 19.2448 69.4833 18.7865C67.6135 18.3281 65.7125 17.8385 63.7438 17.3802C61.8115 16.9167 59.8427 16.4271 57.8427 15.9688L57.8115 16.1302Z" fill="#666666" fill-opacity="0.9"/>
<path d="M56.2397 6.26058C59.7449 8.06787 63.1251 9.86995 66.3386 11.672C69.5522 13.4741 72.5678 15.245 75.3543 17.0522C78.4064 19.0158 81.1928 21.0522 83.6824 23.0835C86.1772 25.1512 88.3386 27.245 90.1095 29.3804C92.2084 31.9012 93.7814 34.495 94.797 37.2137C95.8126 39.9377 96.2761 42.7554 96.1407 45.771C95.9793 49.771 94.6668 54.4272 92.0418 60.1043C89.4532 65.8075 85.5209 72.5314 80.1407 80.6929L80.2709 80.7918C85.6511 72.6252 89.5522 65.8752 92.1772 60.1668C94.797 54.4637 96.1095 49.8075 96.2761 45.771C96.4064 42.7241 95.948 39.9064 94.9324 37.1512C93.9116 34.4272 92.3074 31.8075 90.2084 29.2814C88.4376 27.1147 86.2397 25.0158 83.7501 22.9533C81.2553 20.8856 78.4688 18.8856 75.3855 16.8856C72.6355 15.0835 69.5834 13.3127 66.3699 11.5106C63.1563 9.70329 59.7449 7.90121 56.2709 6.09912L56.2084 6.26058H56.2397Z" fill="#666666" fill-opacity="0.9"/>
<path d="M59.843 18.7238C61.9107 19.2134 63.9785 19.703 66.0097 20.1665C68.041 20.6561 70.041 21.1144 71.942 21.5728C73.8118 22.0311 75.6503 22.4946 77.4524 22.9165C79.2545 23.38 81.0253 23.8019 82.7649 24.2655C84.5045 24.6873 86.1764 25.1509 87.7805 25.5415C89.3899 25.9686 91.0253 26.3957 92.6347 26.8228C94.1764 27.2134 95.6816 27.6405 97.2232 28.0363C98.7337 28.4269 100.208 28.8228 101.65 29.2134L101.682 29.0519C100.239 28.6561 98.7337 28.2655 97.2545 27.8696C95.7805 27.479 94.2389 27.0519 92.666 26.6561C91.093 26.229 89.4837 25.8384 87.8118 25.38C86.1399 24.953 84.468 24.5259 82.7962 24.0988C81.0618 23.6717 79.291 23.2134 77.4524 22.755C75.6503 22.2967 73.8118 21.8696 71.942 21.4113C69.9785 20.9165 68.0097 20.4582 66.0097 19.9686C64.0097 19.4738 61.942 19.0155 59.843 18.5259L59.8118 18.6873L59.843 18.7238Z" fill="#666666" fill-opacity="0.9"/>
<path d="M54.1716 5.70296C57.6507 7.51025 61.057 9.31234 64.2393 11.1144C67.4528 12.9165 70.4372 14.6873 73.1924 16.4946C76.208 18.4582 78.9945 20.4946 81.4216 22.5259C83.8486 24.5936 85.9788 26.6561 87.682 28.7863C89.7184 31.3123 91.1611 33.9009 92.0101 36.6248C92.8643 39.3123 93.1611 42.1665 92.7966 45.1509C92.3382 49.1821 90.6663 53.8384 87.5518 59.578C84.4372 65.3175 79.9111 72.1353 73.7132 80.4321L73.8434 80.5311C80.0101 72.2342 84.5674 65.4113 87.682 59.6769C90.7966 53.9061 92.5049 49.2134 92.9632 45.1821C93.3226 42.1665 93.0257 39.3123 92.1403 36.5936C91.2549 33.8696 89.8122 31.2498 87.7809 28.6873C86.0778 26.5571 83.9476 24.4582 81.5205 22.3957C79.057 20.328 76.307 18.328 73.2549 16.3592C70.4997 14.5571 67.4841 12.755 64.2705 10.9842C61.057 9.18213 57.682 7.37484 54.2028 5.57275L54.1403 5.73942L54.1716 5.70296Z" fill="#666666" fill-opacity="0.9"/>
<path d="M61.4163 21.4113C63.5829 21.9009 65.7444 22.3957 67.8434 22.8853C69.9423 23.38 72.01 23.8384 74.0413 24.328C76.0413 24.7863 77.9423 25.2446 79.7809 25.7082C81.6507 26.1665 83.484 26.6248 85.3225 27.0519C87.0621 27.479 88.7965 27.9009 90.5048 28.3644C92.2757 28.8228 93.9475 29.2446 95.5204 29.6405C97.0934 30.0363 98.6663 30.4582 100.239 30.854C101.781 31.2498 103.291 31.6717 104.796 32.0675L104.833 31.9009C103.354 31.5103 101.817 31.1144 100.276 30.6873C98.734 30.2967 97.1923 29.8696 95.5517 29.479C93.8486 29.0519 92.1402 28.5936 90.5361 28.1978C88.8642 27.7707 87.1246 27.3436 85.3538 26.8853C83.5517 26.4269 81.7132 25.9998 79.8121 25.5415C77.9111 25.0832 75.9788 24.6248 74.0777 24.1665C72.0777 23.6717 70.01 23.2134 67.8798 22.7238C65.7809 22.229 63.6507 21.7394 61.4527 21.2446L61.4163 21.4113Z" fill="#666666" fill-opacity="0.9"/>
<path d="M52.072 5.11458C55.5512 6.91667 58.9262 8.71875 62.1085 10.526C65.2856 12.3281 68.3064 14.099 71.0252 15.901C74.0408 17.8698 76.7648 19.8698 79.1918 21.9375C81.5825 23.9688 83.6502 26.0677 85.2543 28.1979C87.1918 30.724 88.5356 33.3125 89.2231 36C89.947 38.6927 90.0095 41.5104 89.4523 44.526C88.6658 48.5625 86.5981 53.2813 82.9262 59.0833C79.2908 64.8906 74.0773 71.776 67.0564 80.2031L67.1918 80.3021C74.2075 71.875 79.421 64.9896 83.0616 59.1823C86.7335 53.3802 88.796 48.625 89.5825 44.5938C90.1762 41.5781 90.0773 38.724 89.3533 36C88.6345 33.2813 87.2908 30.6562 85.3533 28.1302C83.7127 26 81.6502 23.901 79.2543 21.8385C76.8637 19.7708 74.1085 17.7708 71.0929 15.8021C68.3689 14 65.3533 12.2292 62.171 10.4271C58.9939 8.625 55.6137 6.81771 52.1398 5.01562L52.072 5.18229V5.11458Z" fill="#666666" fill-opacity="0.9"/>
<path d="M62.4993 24.328C64.8639 24.854 67.1243 25.3436 69.3222 25.8019C71.5201 26.2967 73.7128 26.7863 75.8482 27.2811C77.8795 27.7394 79.8795 28.1978 81.8795 28.6873C83.8795 29.1509 85.8118 29.6092 87.6816 30.0675C89.4837 30.4946 91.291 30.953 93.093 31.38C94.8639 31.8071 96.6035 32.2655 98.3066 32.6925C99.9785 33.1144 101.619 33.5415 103.192 33.9373C104.765 34.328 106.338 34.755 107.916 35.1509L107.947 34.9842C106.406 34.5936 104.864 34.1665 103.223 33.7707C101.583 33.3436 99.9785 32.9217 98.3378 32.5259C96.6347 32.0988 94.8951 31.6717 93.1243 31.2134C91.3535 30.7863 89.5514 30.328 87.7128 29.9009C85.8118 29.4425 83.8795 28.9842 81.9107 28.5259C79.942 28.0675 77.942 27.6092 75.8795 27.1144C73.7493 26.6248 71.5826 26.13 69.3535 25.6405C67.093 25.1509 64.8274 24.6561 62.5357 24.1665L62.4993 24.328Z" fill="#666666" fill-opacity="0.9"/>
<path d="M49.973 4.55745C53.4522 6.35954 56.7959 8.16162 59.973 9.96891C63.1553 11.771 66.1084 13.5418 68.8272 15.3439C71.8115 17.3127 74.5355 19.3127 76.8949 21.3804C79.2543 23.4116 81.2543 25.5106 82.7959 27.6408C84.6345 30.1668 85.848 32.7554 86.3688 35.4429C86.9261 38.1356 86.7959 40.9533 85.9782 43.9689C84.8636 48.0366 82.3376 52.7918 78.1397 58.6252C73.9105 64.495 68.0095 71.4481 60.1084 79.9741L60.2386 80.0731C68.1397 71.547 74.0407 64.5627 78.2699 58.6929C82.5043 52.8231 85.0251 48.0679 86.1397 43.9689C86.9626 40.9533 87.0928 38.0991 86.5355 35.3804C85.9782 32.6564 84.7647 30.0366 82.9261 27.5106C81.3845 25.3804 79.3845 23.2814 76.9938 21.245C74.6345 19.2137 71.9105 17.1825 68.9261 15.2137C66.2386 13.4116 63.2542 11.6408 60.072 9.8387C56.8949 8.03141 53.5511 6.22933 50.072 4.42725L50.0095 4.5887L49.973 4.55745Z" fill="#666666" fill-opacity="0.9"/>
<path d="M62.9941 27.4792C65.4524 27.9687 67.8795 28.4948 70.2701 28.9844C72.6347 29.4792 74.9264 29.9688 77.2232 30.4583C79.4212 30.9531 81.5514 31.4115 83.6191 31.8698C85.6816 32.3281 87.7493 32.7865 89.7493 33.2812C91.6816 33.7396 93.5514 34.1667 95.4212 34.625C97.291 35.0833 99.1243 35.5104 100.895 35.9375C102.635 36.3646 104.338 36.7865 106.01 37.1823C107.65 37.6094 109.322 38 110.932 38.4271L110.963 38.2656C109.359 37.8698 107.718 37.4427 106.046 37.0208C104.374 36.5938 102.666 36.1979 100.932 35.7708C99.1243 35.3438 97.291 34.8854 95.4524 34.4583C93.6191 34.0365 91.718 33.5729 89.7805 33.1146C87.7805 32.6562 85.7493 32.1979 83.6503 31.7083C81.5514 31.25 79.4212 30.7552 77.2545 30.2969C74.9941 29.8073 72.6972 29.3125 70.3066 28.8229C67.942 28.3281 65.5149 27.8385 63.0253 27.3125L62.9941 27.4792Z" fill="#666666" fill-opacity="0.9"/>
<path d="M47.843 3.93245C51.2857 5.73975 54.6294 7.57308 57.7805 9.34391C60.9263 11.146 63.8794 12.9168 66.5669 14.7241C69.5148 16.6877 72.2075 18.6877 74.4992 20.7241C76.7961 22.7554 78.7336 24.8231 80.1763 26.9533C81.9107 29.4793 82.9628 32.0679 83.3534 34.7554C83.7128 37.4429 83.4211 40.2658 82.3378 43.2502C80.895 47.3491 77.9107 52.0991 73.093 58.0366C68.2701 63.9377 61.5826 70.9897 52.7596 79.646L52.8951 79.7762C61.744 71.12 68.4003 64.0679 73.2232 58.1668C78.0409 52.2345 81.0617 47.4429 82.5044 43.3491C83.5825 40.3283 83.9107 37.4793 83.52 34.7554C83.1242 32.0366 82.0409 29.4116 80.3065 26.8856C78.8273 24.7554 76.895 22.6564 74.5982 20.6252C72.3065 18.5887 69.6138 16.5887 66.6294 14.5887C63.9419 12.7866 60.994 11.0158 57.843 9.2137C54.6971 7.41162 51.3534 5.60433 47.9107 3.771L47.843 3.93245Z" fill="#666666" fill-opacity="0.9"/>
<path d="M62.6663 30.9842C65.3538 31.5103 67.9423 31.9998 70.5361 32.4946C73.0934 32.9842 75.5829 33.5103 78.01 33.9998C80.3382 34.4946 82.5986 34.953 84.8642 35.4113C87.0934 35.8696 89.2548 36.3644 91.4215 36.8228C93.4892 37.2811 95.5204 37.7082 97.4527 38.1665C99.4215 38.5936 101.354 39.0519 103.26 39.479C106.666 40.2655 109.948 41.0519 113.093 41.8071L113.849 41.9998L113.88 41.8384L113.13 41.6405C109.948 40.8853 106.666 40.0988 103.291 39.3123C101.39 38.8853 99.4527 38.4269 97.4892 37.9998C95.4892 37.5415 93.4892 37.1144 91.4527 36.6561C89.3225 36.1978 87.1559 35.7394 84.8954 35.2498C82.6663 34.7863 80.4059 34.2967 78.0413 33.8384C75.6142 33.3436 73.1246 32.854 70.5673 32.328C68.01 31.8384 65.385 31.3123 62.6975 30.8228L62.6663 30.9842Z" fill="#666666" fill-opacity="0.9"/>
<path d="M45.645 3.34391C49.0877 5.18245 52.4002 6.98454 55.5148 8.78662C58.6294 10.5887 61.5825 12.3595 64.2388 14.1668C67.1554 16.1304 69.8117 18.1304 72.0773 20.1668C74.3377 22.1981 76.1711 24.2658 77.5513 26.3595C79.1554 28.8856 80.1086 31.4429 80.3065 34.1356C80.4992 36.8231 79.9419 39.6408 78.6346 42.6252C76.7961 46.7241 73.3534 51.5418 67.8794 57.5106C62.4002 63.4793 54.9575 70.6252 45.1242 79.3804L45.2232 79.5158C55.0565 70.7606 62.5357 63.6095 67.9784 57.6408C73.4523 51.6772 76.9263 46.8543 78.7648 42.7241C80.1086 39.7085 80.6659 36.8856 80.4679 34.1356C80.27 31.4116 79.3534 28.8231 77.7127 26.2658C76.3377 24.1304 74.4679 22.0679 72.2075 20.0002C69.9419 17.9689 67.2857 15.9689 64.369 13.9689C61.7127 12.1981 58.7648 10.396 55.645 8.5887C52.4992 6.78662 49.1867 4.98454 45.744 3.146L45.6815 3.31266L45.645 3.34391Z" fill="#666666" fill-opacity="0.9"/>
<path d="M61.3222 34.8543C64.3014 35.3804 67.1555 35.9012 69.9107 36.396C72.6972 36.8856 75.4212 37.4116 78.0774 37.9012C80.5982 38.3647 83.0618 38.8543 85.4837 39.3127C87.9107 39.771 90.2753 40.2658 92.567 40.7241C94.7649 41.1825 96.9316 41.6095 99.0618 42.0679C101.161 42.495 103.26 42.9533 105.291 43.3804C107.26 43.8075 109.192 44.2345 111.062 44.6564C112.932 45.0835 114.765 45.4793 116.603 45.9064L116.635 45.7397C114.833 45.3491 112.994 44.922 111.093 44.495C109.192 44.0679 107.26 43.6408 105.322 43.2137C103.291 42.7918 101.223 42.3283 99.093 41.9064C96.9941 41.4793 94.8326 41.021 92.6035 40.5575C90.2753 40.0991 87.9107 39.6095 85.5201 39.1512C83.1243 38.6929 80.6347 38.1981 78.1087 37.7397C75.4837 37.2502 72.7285 36.7241 69.942 36.2293C67.1243 35.7085 64.2389 35.2137 61.3535 34.6929L61.3222 34.8543Z" fill="#666666" fill-opacity="0.9"/>
<path d="M43.4524 2.71875C46.8587 4.55729 50.1712 6.35938 53.2857 8.16146C56.4003 9.96875 59.3222 11.7396 61.9107 13.5417C64.8274 15.5104 67.4212 17.5104 69.6139 19.5417C71.8118 21.5729 73.5826 23.6406 74.8639 25.7396C76.3691 28.2292 77.1555 30.8229 77.1555 33.5104C77.1555 36.1979 76.3691 39.0208 74.7649 42C72.5357 46.1354 68.567 50.9844 62.4003 56.9844C56.2389 63.0208 47.9107 70.2344 36.9889 79.0885L37.0878 79.2188C48.041 70.3333 56.3691 63.151 62.5357 57.1198C68.6972 51.0833 72.6972 46.2344 74.9264 42.099C76.5357 39.0833 77.3222 36.2656 77.3535 33.5417C77.3535 30.8229 76.567 28.2292 75.0566 25.6719C73.7805 23.5417 71.9785 21.474 69.7805 19.4427C67.5826 17.4115 64.9576 15.4115 62.041 13.4427C59.416 11.6719 56.4993 9.86979 53.3847 8.06771C50.2701 6.26042 46.9576 4.45833 43.5462 2.625L43.4837 2.78646L43.4524 2.71875Z" fill="#666666" fill-opacity="0.9"/>
<path d="M58.4 39.3123C61.6813 39.8384 64.8635 40.328 67.9781 40.854C71.0927 41.3488 74.1083 41.8384 77.025 42.3644C79.8115 42.8228 82.5354 43.3123 85.1917 43.7707C87.8792 44.2655 90.4677 44.7238 92.9625 45.1821C95.3531 45.6092 97.7177 46.0675 100.046 46.4946C102.338 46.9217 104.603 47.38 106.832 47.8071C108.963 48.2342 111.061 48.6248 113.061 49.0519C115.061 49.4478 117.061 49.8696 119.03 50.2655L119.061 50.0988C117.129 49.7082 115.129 49.2811 113.093 48.8853C111.061 48.4634 108.963 48.0675 106.864 47.6405C104.666 47.2134 102.405 46.7915 100.077 46.328C97.7802 45.9061 95.4208 45.4425 92.9938 45.0207C90.4365 44.5571 87.8479 44.0675 85.2229 43.6092C82.5667 43.1509 79.8479 42.6561 77.0563 42.1978C74.1396 41.7082 71.124 41.2134 67.9781 40.6925C64.8635 40.1978 61.6813 39.6717 58.4 39.1509L58.3688 39.3123H58.4Z" fill="#666666" fill-opacity="0.9"/>
<path d="M41.2186 2.13021C44.5988 3.96875 47.8748 5.77083 50.9581 7.57292C54.0415 9.375 56.9269 11.1823 59.5154 12.9531C62.4008 14.9167 64.9581 16.9167 67.0936 18.9531C69.2238 20.9844 70.9269 23.0156 72.1092 25.1146C73.4842 27.6094 74.1092 30.1667 73.9113 32.8542C73.7133 35.5417 72.6977 38.3646 70.7967 41.349C68.1404 45.5104 63.6144 50.3646 56.729 56.4271C49.8436 62.4948 40.5988 69.8073 28.4998 78.7604L28.5988 78.8906C40.6977 69.9062 49.9425 62.625 56.8279 56.526C63.7133 50.4271 68.2706 45.5781 70.9269 41.4115C72.8279 38.3958 73.88 35.5781 74.0779 32.8542C74.2706 30.1302 73.6508 27.5417 72.2394 25.0156C71.0571 22.9167 69.354 20.8542 67.1925 18.8229C65.0571 16.7865 62.4686 14.7865 59.5831 12.8177C56.9946 11.0469 54.1092 9.24479 51.0258 7.44271C47.9425 5.64062 44.6613 3.83333 41.2863 2L41.2186 2.16146V2.13021Z" fill="#666666" fill-opacity="0.9"/>
<path d="M53.2232 44.6248C56.9576 45.1196 60.5982 45.6092 64.1399 46.0988C67.6816 46.5936 71.093 47.0832 74.4368 47.578C77.5826 48.0363 80.6347 48.4946 83.6503 48.953C86.666 49.4113 89.5514 49.8696 92.3691 50.2967C95.0618 50.7238 97.6816 51.1509 100.275 51.578C102.833 52.005 105.322 52.4269 107.781 52.854C110.109 53.2498 112.406 53.6405 114.635 54.0363C116.932 54.4269 119.093 54.8228 121.228 55.2186L121.26 55.0519C119.062 54.6613 116.864 54.2655 114.666 53.8696C112.437 53.479 110.145 53.0832 107.817 52.6925C105.39 52.2655 102.864 51.8384 100.307 51.4113C97.7493 50.9842 95.1243 50.5623 92.4055 50.1353C89.5514 49.6769 86.6347 49.2134 83.6816 48.7915C80.6972 48.328 77.6503 47.8696 74.468 47.4113C71.1555 46.9217 67.7128 46.4269 64.1712 45.9373C60.666 45.4425 56.9941 44.953 53.2545 44.4634L53.2232 44.6248Z" fill="#666666" fill-opacity="0.9"/>
<path d="M38.9574 1.4738C42.3012 3.31234 45.546 5.11442 48.6293 6.9165C51.6814 8.71859 54.5303 10.5259 57.0876 12.2967C59.9418 14.2603 62.4678 16.2603 64.5356 18.2603C66.5981 20.2655 68.2387 22.328 69.2856 24.3957C70.5668 26.8853 70.9939 29.4425 70.5668 32.13C70.1397 34.8228 68.8637 37.6092 66.6293 40.5936C63.5512 44.755 58.4366 49.6405 50.7595 55.7759C43.0876 61.9061 32.8585 69.2498 19.546 78.3644L19.6449 78.4946C32.9574 69.4113 43.1866 62.0363 50.8585 55.9061C58.5303 49.7707 63.6501 44.854 66.7647 40.6925C68.9939 37.6717 70.3064 34.854 70.7283 32.13C71.1553 29.4113 70.697 26.8228 69.421 24.2967C68.3689 22.1978 66.7283 20.13 64.6293 18.0988C62.5668 16.0675 60.0095 14.0675 57.1866 12.0988C54.6293 10.328 51.7803 8.52588 48.7283 6.71859C45.6814 4.9165 42.4314 3.08317 39.0564 1.27588L38.9574 1.4738Z" fill="#666666" fill-opacity="0.9"/>
<path d="M44.6607 51.151C49.0566 51.6406 53.3222 52.099 57.4524 52.5625C61.5826 53.0208 65.5514 53.4792 69.4212 53.9375C73.0566 54.3646 76.5982 54.7917 80.041 55.2188C83.5201 55.6406 86.8639 56.0677 90.041 56.4948C93.0618 56.8906 96.0462 57.2812 98.9628 57.6771C101.911 58.0677 104.765 58.4635 107.551 58.8542C110.176 59.2188 112.734 59.6094 115.26 59.9688C117.749 60.3333 120.208 60.6927 122.603 61.0521L122.635 60.8906C120.244 60.526 117.817 60.1667 115.291 59.8073C112.801 59.4479 110.208 59.0833 107.588 58.6927C104.796 58.2969 101.947 57.9062 98.9941 57.5104C96.1087 57.1198 93.1243 56.724 90.0774 56.3333C86.7962 55.9063 83.4524 55.4792 80.0774 55.0521C76.6347 54.625 73.1243 54.1979 69.4524 53.776C65.6139 53.3125 61.6139 52.8542 57.4837 52.3958C53.3535 51.9375 49.0878 51.4479 44.6972 50.9844L44.6607 51.151Z" fill="#666666" fill-opacity="0.9"/>
<mask id="mask1_654_334" style="mask-type:luminance" maskUnits="userSpaceOnUse" x="9" y="0" width="59" height="79">
<path d="M67.999 0H9.33229V78.3646H67.999V0Z" fill="white"/>
</mask>
<g mask="url(#mask1_654_334)">
<path d="M36.6603 0.854167C39.9728 2.6875 43.1863 4.52604 46.202 6.32812C49.2228 8.13021 52.0405 9.93229 54.5665 11.6719C57.3842 13.6406 59.8426 15.6406 61.8426 17.6406C63.8426 19.6406 65.3842 21.6719 66.3374 23.7708C67.452 26.2656 67.7124 28.8229 67.0926 31.4792C66.4363 34.1667 64.8634 36.9531 62.3374 39.9375C58.7645 44.1354 53.0249 49.0521 44.5301 55.2188C36.0405 61.4115 24.7592 68.8229 10.1342 78.0365L10.2332 78.1667C24.8582 68.9531 36.1395 61.5469 44.629 55.349C53.1238 49.151 58.8947 44.2344 62.4676 40.0365C65.0249 37.0208 66.5978 34.1979 67.254 31.5104C67.9103 28.7865 67.6499 26.1979 66.4988 23.6719C65.5509 21.5729 64.0092 19.5417 61.978 17.5104C59.9728 15.474 57.4832 13.5104 54.6655 11.5104C52.1395 9.73958 49.3165 7.93229 46.3009 6.13021C43.2853 4.32812 40.0405 2.48958 36.728 0.65625L36.6603 0.786458V0.854167Z" fill="#666666" fill-opacity="0.9"/>
</g>
<mask id="mask2_654_334" style="mask-type:luminance" maskUnits="userSpaceOnUse" x="30" y="58" width="94" height="12">
<path d="M123.067 58.3647H30.6663V69.0314H123.067V58.3647Z" fill="white"/>
</mask>
<g mask="url(#mask2_654_334)">
<path d="M30.9898 59.5783C36.3023 60.0054 41.4533 60.4325 46.4325 60.8543C51.3856 61.2814 56.1721 61.6772 60.8283 62.0679C65.1877 62.4637 69.3856 62.8231 73.4221 63.1825C77.4846 63.547 81.4221 63.9377 85.2554 64.297C88.8335 64.6252 92.3075 64.9897 95.6825 65.3179C99.0939 65.646 102.438 66.0054 105.682 66.3335C108.735 66.6616 111.688 66.9533 114.573 67.2814C117.459 67.5783 120.276 67.9064 122.995 68.2033L123.031 68.0366C120.276 67.7397 117.49 67.4116 114.604 67.12C111.719 66.8231 108.766 66.495 105.719 66.1668C102.469 65.8387 99.1616 65.5106 95.7189 65.1512C92.3387 64.8231 88.8648 64.4637 85.2918 64.1356C81.4846 63.7762 77.521 63.4116 73.4533 63.021C69.3231 62.6252 65.1252 62.2658 60.8596 61.9064C56.2398 61.5106 51.4533 61.0835 46.4689 60.6929C41.5158 60.2658 36.37 59.87 31.0262 59.4116V59.5783H30.9898Z" fill="#666666" fill-opacity="0.9"/>
</g>
<mask id="mask3_654_334" style="mask-type:luminance" maskUnits="userSpaceOnUse" x="-1" y="0" width="67" height="79">
<path d="M65.3329 0H-0.000389099V78.3646H65.3329V0Z" fill="white"/>
</mask>
<g mask="url(#mask3_654_334)">
<path d="M34.3334 0.197917C37.6146 2.03125 40.7969 3.86979 43.7813 5.67188C46.7605 7.47396 49.5521 9.28125 52.0417 11.0156C54.7969 12.9844 57.224 14.9844 59.1563 16.9844C61.0938 18.9844 62.5365 21.0156 63.3542 23.0833C64.3386 25.5729 64.4011 28.099 63.5157 30.7865C62.6303 33.4792 60.7657 36.2656 57.8438 39.25C53.7813 43.4427 47.3542 48.3958 37.974 54.625C28.5625 60.8542 16.2032 68.3646 0.13546 77.6771L0.234421 77.8073C16.3021 68.4948 28.6615 60.9896 38.073 54.7552C47.4844 48.526 53.8803 43.5781 57.974 39.349C60.8959 36.3281 62.7657 33.5104 63.6823 30.8229C64.599 28.099 64.5 25.5417 63.5157 23.0156C62.698 20.9167 61.224 18.8854 59.2865 16.8542C57.3542 14.8177 54.9271 12.8542 52.1407 10.8542C49.6459 9.08333 46.8594 7.27604 43.875 5.47396C40.8959 3.67188 37.7136 1.83333 34.4323 0L34.3334 0.130208V0.197917Z" fill="#666666" fill-opacity="0.9"/>
</g>
<path d="M9.21771 71.0885C15.9052 71.4167 22.3688 71.776 28.5615 72.0677C34.7594 72.3958 40.7594 72.6927 46.499 73.0208C51.8115 73.3177 56.9573 73.5781 61.9417 73.875C66.926 74.1354 71.749 74.4323 76.4052 74.6615C80.7646 74.8906 84.9938 75.151 89.124 75.3802C93.2229 75.6094 97.1917 75.8385 101.061 76.0677C104.666 76.2656 108.207 76.4948 111.65 76.6927C115.093 76.8906 118.436 77.1198 121.686 77.3177V77.151C118.436 76.9531 115.093 76.7604 111.65 76.5312C108.207 76.3333 104.702 76.1042 101.061 75.9062C97.2229 75.6771 93.2542 75.4479 89.124 75.2188C85.025 74.9896 80.7958 74.724 76.4052 74.4948C71.749 74.2344 66.926 73.974 61.9417 73.7083C56.9573 73.4479 51.8115 73.151 46.499 72.8594C40.7594 72.5625 34.7594 72.2344 28.5615 71.9062C22.3688 71.5781 15.9052 71.25 9.21771 70.9219V71.0885Z" fill="#666666" fill-opacity="0.9"/>
</svg>
