<svg width="48" height="48" viewBox="0 0 48 48" fill="none" xmlns="http://www.w3.org/2000/svg">
<path d="M19.5 28.5C19.5 28.8978 19.342 29.2794 19.0607 29.5607C18.7794 29.842 18.3978 30 18 30H10.5C10.1022 30 9.72064 29.842 9.43934 29.5607C9.15804 29.2794 9 28.8978 9 28.5C9 28.1022 9.15804 27.7206 9.43934 27.4393C9.72064 27.158 10.1022 27 10.5 27H18C18.3978 27 18.7794 27.158 19.0607 27.4393C19.342 27.7206 19.5 28.1022 19.5 28.5ZM45 21.75V33C45 33.7956 44.6839 34.5587 44.1213 35.1213C43.5587 35.6839 42.7957 36 42 36H25.5V42C25.5 42.3978 25.342 42.7794 25.0607 43.0607C24.7794 43.342 24.3978 43.5 24 43.5C23.6022 43.5 23.2206 43.342 22.9393 43.0607C22.658 42.7794 22.5 42.3978 22.5 42V36H6C5.20435 36 4.44129 35.6839 3.87868 35.1213C3.31607 34.5587 3 33.7956 3 33V21.75C3.00347 18.7674 4.18985 15.9079 6.29889 13.7989C8.40792 11.6899 11.2674 10.5035 14.25 10.5H28.5V4.5C28.5 4.10218 28.658 3.72064 28.9393 3.43934C29.2206 3.15804 29.6022 3 30 3H36C36.3978 3 36.7794 3.15804 37.0607 3.43934C37.342 3.72064 37.5 4.10218 37.5 4.5C37.5 4.89782 37.342 5.27936 37.0607 5.56066C36.7794 5.84196 36.3978 6 36 6H31.5V10.5H33.75C36.7326 10.5035 39.5921 11.6899 41.7011 13.7989C43.8101 15.9079 44.9965 18.7674 45 21.75ZM22.5 33V21.75C22.5 19.562 21.6308 17.4635 20.0836 15.9164C18.5365 14.3692 16.438 13.5 14.25 13.5C12.062 13.5 9.96354 14.3692 8.41637 15.9164C6.86919 17.4635 6 19.562 6 21.75V33H22.5ZM42 21.75C41.9975 19.5627 41.1275 17.4657 39.5809 15.9191C38.0343 14.3725 35.9373 13.5025 33.75 13.5H31.5V27C31.5 27.3978 31.342 27.7794 31.0607 28.0607C30.7794 28.342 30.3978 28.5 30 28.5C29.6022 28.5 29.2206 28.342 28.9393 28.0607C28.658 27.7794 28.5 27.3978 28.5 27V13.5H21.8906C23.0292 14.5514 23.9378 15.8273 24.559 17.2471C25.1802 18.667 25.5006 20.2002 25.5 21.75V33H42V21.75Z" fill="#3CA2F1"/>
</svg>
