<svg width="150" height="150" viewBox="0 0 150 150" fill="none" xmlns="http://www.w3.org/2000/svg">
<g clip-path="url(#clip0_1_533)">
<path d="M138.281 115.476C130.078 115.476 123.633 116.071 118.359 118.452C116.602 119.048 114.258 119.048 114.258 120.833L116.016 124.405C117.187 126.19 118.945 129.167 121.289 130.952L127.734 135.714L140.039 141.667L146.484 147.024L150 149.405L148.242 145.833L145.312 142.857C142.383 138.69 138.867 135.119 134.766 132.143C131.25 130.357 124.219 126.786 123.047 123.214H122.461L129.492 121.429L140.039 119.643L144.727 118.452V117.262L139.453 111.31C134.766 106.548 128.906 102.381 123.047 98.2143L112.5 93.4524C111.328 92.8571 108.984 92.2619 108.398 91.0714L104.297 83.3333L95.5078 65.4762L90.8203 53.5714C80.2734 35.7143 68.5547 25 50.9765 14.881C47.4609 12.5 42.7734 11.9048 38.0859 10.7143L30.4687 10.1191L25.7812 6.54762C19.9218 2.97619 4.68747 -5.35714 0.58591 5.35715C-2.34378 11.9048 4.68747 18.4524 7.03122 22.0238L12.3047 29.7619L14.0625 35.1191C15.8203 39.881 16.9922 45.2381 19.3359 49.4048L22.8515 55.3571C24.0234 56.5476 25.1953 57.1429 25.7812 58.9286C24.0234 61.3095 24.0234 64.2857 23.4375 66.6667C19.3359 78.5714 21.0937 92.8571 26.3672 101.786C27.539 104.167 31.6406 110.119 36.914 107.738C41.6015 105.952 40.4297 100 41.6015 94.6429L42.1875 92.2619L46.875 100.595C49.8047 105.952 55.0781 111.31 59.7656 114.881C62.1093 116.667 64.4531 119.643 67.3828 120.833L65.039 118.452L59.7656 112.5C55.0781 106.548 51.5625 100 48.0468 93.4524L43.9453 83.3333L42.1875 79.7619C40.4297 82.1429 38.0859 83.9286 36.914 86.9048C35.1562 91.0714 35.1562 97.0238 34.5703 102.381H33.9843C30.4687 101.786 29.2968 98.2143 28.125 95.2381C25.1953 88.0952 24.6093 76.1905 27.539 67.8571C28.125 65.4762 31.0547 58.9286 29.8828 56.5476C29.2968 54.7619 27.539 53.5714 26.3672 52.381L22.2656 45.2381L16.4062 27.381L11.1328 19.6429C9.37497 16.6667 7.03122 14.881 5.27341 11.3095C4.68747 10.1191 4.10153 8.33334 5.27341 7.14286L6.44528 5.95238C7.61716 4.76191 11.7187 5.95238 12.8906 6.54762C16.4062 8.33334 19.9218 9.52381 22.8515 11.9048L27.539 15.4762H29.8828C33.3984 16.0714 36.914 15.4762 39.8437 16.6667C45.1172 18.4524 50.3906 20.8333 54.4922 23.8095C67.9687 32.1429 79.1015 44.6429 86.1328 58.9286C87.8906 61.3095 87.8906 63.6905 89.0625 66.0714L96.0937 81.5476C98.4375 86.3095 100.195 91.0714 103.125 95.2381C104.883 97.619 111.328 98.8095 113.672 100L120.703 102.381L131.25 109.524C132.422 110.714 137.695 113.69 138.281 115.476Z" fill="#666666"/>
<path d="M33.9844 25.5952L29.8828 26.1905L33.3984 30.3571L35.7422 35.7143V35.119C37.5 34.5238 38.0859 32.7381 38.0859 30.3571L36.9141 27.9762L33.9844 25.5952Z" fill="#3CA2F1"/>
</g>
<defs>
<clipPath id="clip0_1_533">
<rect width="150" height="150" fill="white"/>
</clipPath>
</defs>
</svg>
