<svg width="100" height="100" viewBox="0 0 100 100" fill="none" xmlns="http://www.w3.org/2000/svg">
<path d="M84.375 15.625H65.625C64.7962 15.625 64.0013 15.9542 63.4153 16.5403C62.8292 17.1263 62.5 17.9212 62.5 18.75C62.5 19.5788 62.8292 20.3737 63.4153 20.9597C64.0013 21.5458 64.7962 21.875 65.625 21.875H71.875V69.082L43.3594 17.2422C43.0898 16.7528 42.6939 16.3446 42.213 16.0602C41.7321 15.7758 41.1837 15.6255 40.625 15.625H15.625C14.7962 15.625 14.0013 15.9542 13.4153 16.5403C12.8292 17.1263 12.5 17.9212 12.5 18.75C12.5 19.5788 12.8292 20.3737 13.4153 20.9597C14.0013 21.5458 14.7962 21.875 15.625 21.875H21.875V78.125H15.625C14.7962 78.125 14.0013 78.4542 13.4153 79.0403C12.8292 79.6263 12.5 80.4212 12.5 81.25C12.5 82.0788 12.8292 82.8737 13.4153 83.4597C14.0013 84.0458 14.7962 84.375 15.625 84.375H34.375C35.2038 84.375 35.9987 84.0458 36.5847 83.4597C37.1708 82.8737 37.5 82.0788 37.5 81.25C37.5 80.4212 37.1708 79.6263 36.5847 79.0403C35.9987 78.4542 35.2038 78.125 34.375 78.125H28.125V30.918L56.6406 82.7578C56.9102 83.2472 57.3061 83.6554 57.787 83.9398C58.2679 84.2242 58.8163 84.3745 59.375 84.375H75C75.8288 84.375 76.6237 84.0458 77.2097 83.4597C77.7958 82.8737 78.125 82.0788 78.125 81.25V21.875H84.375C85.2038 21.875 85.9987 21.5458 86.5847 20.9597C87.1708 20.3737 87.5 19.5788 87.5 18.75C87.5 17.9212 87.1708 17.1263 86.5847 16.5403C85.9987 15.9542 85.2038 15.625 84.375 15.625ZM30.2852 21.875H38.7773L69.7148 78.125H61.2227L30.2852 21.875Z" fill="#666666" fill-opacity="0.9"/>
</svg>
