<svg width="100" height="100" viewBox="0 0 100 100" fill="none" xmlns="http://www.w3.org/2000/svg">
<path d="M42.4375 21.2219L26.0187 12.9367L7.98906 21.9305L24.8594 30.3992L42.4375 21.2219ZM49.9695 25.0242L67.1875 33.7188L49.3258 42.6852L32.4312 34.2047L49.9695 25.0242ZM72.9672 13.0586L90.6586 21.9297L74.8352 29.8734L57.5836 21.1695L72.9672 13.0586ZM65.3531 9.23751L49.4258 1.25079L33.6727 9.11486L50.0852 17.3883L65.3531 9.23751ZM52.9023 77.8164V99.5477L72.1953 89.9195L72.1773 68.1789L52.9023 77.8164ZM72.168 60.5899L72.1469 39.0781L52.9023 48.6453V70.1664L72.168 60.5899ZM95.3281 56.561V78.3781L78.8703 86.5875L78.8578 64.8711L95.3281 56.561ZM95.3281 48.932V27.5516L78.8398 35.7484L78.8523 57.3031L95.3281 48.932Z" fill="#3CA2F1"/>
<path d="M46.0906 48.6453L33.0992 42.1086V70.343C33.0992 70.343 17.2023 36.5281 15.7344 33.4883C15.5453 33.0945 14.7641 32.6672 14.5656 32.5602C11.7 31.0648 3.35078 26.8383 3.35078 26.8383V76.7375L14.9016 82.9297V56.8359C14.9016 56.8359 30.6273 87.0516 30.7891 87.3844C30.9531 87.7141 32.5227 90.8938 34.2133 92.0141C36.4555 93.5031 46.0844 99.2922 46.0844 99.2922L46.0906 48.6453Z" fill="#666666"/>
</svg>
