<svg width="150" height="150" viewBox="0 0 150 150" fill="none" xmlns="http://www.w3.org/2000/svg">
<g clip-path="url(#clip0_1_520)">
<path d="M63.2812 46.5909H59.7656L59.1797 47.7273L59.7656 49.4318C60.3516 50.5682 61.5234 51.1364 62.6953 51.1364H63.2812C65.0391 51.1364 66.7969 50 66.7969 48.8637C67.3828 47.7273 65.0391 46.5909 63.2812 46.5909ZM115.43 46.5909C115.43 45.4546 113.086 44.8864 111.328 45.4546C109.57 45.4546 107.812 46.0227 107.812 47.1591C108.398 48.2955 109.57 49.4318 111.328 49.4318H111.914L114.258 48.2955L115.43 46.5909Z" fill="#3CA2F1"/>
<path d="M145.312 90.9091C144.727 89.2045 142.383 88.0682 138.867 89.2045C128.32 90.9091 124.805 89.7727 123.047 88.6364C131.25 76.7045 138.281 61.9318 141.797 48.2954C143.555 42.0454 144.727 35.7954 144.727 31.25C144.727 25.5682 143.555 21.5909 141.797 19.3182C137.856 14.4053 132.781 10.4579 126.98 7.79348C121.18 5.12903 114.815 3.82192 108.398 3.97727C99.0234 3.97727 90.8203 6.24999 89.0625 7.38636C86.1328 6.24999 82.0312 5.68181 78.5156 5.68181C70.8984 5.68181 65.0391 7.38636 59.7656 10.7954C57.4219 9.65908 51.5625 7.95454 44.5312 6.81818C32.2266 5.11363 22.8516 6.24999 15.8203 11.3636C7.61718 17.0454 3.51562 27.2727 4.68749 41.4773C4.68749 46.0227 7.61718 61.3636 12.3047 75.5682C18.1641 94.3182 24.6094 104.545 31.0547 106.818L33.9844 107.386C36.3281 107.386 39.2578 106.25 42.1875 102.273L54.4922 89.7727C56.8359 90.9091 59.7656 91.4773 62.6953 91.4773V92.0454L61.5234 93.75C59.1797 96.5909 58.5937 96.5909 52.1484 98.2954C50.3906 98.2954 45.1172 99.4318 45.1172 102.841C45.1172 106.818 50.9766 108.523 51.5625 108.523L58.5937 109.091C63.8672 109.091 68.5547 107.386 72.6562 104.545C72.0703 117.614 72.6562 130.682 74.4141 134.659C76.1719 138.068 79.1016 146.023 89.6484 146.023L94.9219 145.455C105.469 143.182 110.156 138.636 111.914 128.409L115.43 102.841L121.875 103.409C126.562 103.409 131.836 102.273 135.352 100.568C139.453 98.8636 146.484 94.8864 145.312 90.9091ZM119.531 43.75L118.945 49.4318L117.773 56.25L118.359 64.2045C118.945 69.3182 120.117 75 117.187 80.1136L116.016 77.8409L114.258 74.4318C110.156 67.6136 101.367 52.2727 106.055 46.0227C107.227 44.3182 110.742 42.6136 119.531 43.75ZM108.984 8.52272C121.289 8.52272 131.25 13.0682 138.281 21.5909C143.555 28.4091 137.695 58.5227 120.703 84.6591L120.117 84.0909C124.219 76.7045 123.633 69.8864 123.047 63.6364L122.461 56.25L123.047 50C123.591 47.0003 123.787 43.9511 123.633 40.9091C123.633 38.0682 120.117 29.5454 113.086 21.5909C109.57 17.6136 103.711 12.5 96.6797 9.65908L108.984 8.52272ZM39.2578 100C35.7422 103.977 33.3984 103.409 32.2266 102.841C27.5391 101.136 21.0937 90.9091 16.4062 73.8636C11.7187 59.6591 8.78905 45.4545 8.78905 41.4773C8.20311 28.4091 11.1328 19.3182 18.1641 14.7727C29.8828 6.81818 48.6328 11.3636 55.6641 13.6364V14.2045C43.3594 26.1364 43.3594 46.5909 43.3594 48.2954V50C43.9453 53.9773 44.5312 60.2273 43.3594 67.6136C42.7901 71.1464 43.1345 74.761 44.3618 78.1329C45.589 81.5047 47.6606 84.5282 50.3906 86.9318L39.2578 100ZM52.1484 82.9545C48.6328 78.9773 46.875 73.8636 47.4609 68.1818C48.6328 60.2273 48.0469 53.4091 48.0469 50V48.8636C49.8047 47.1591 58.0078 42.6136 63.8672 44.3182C66.7969 44.8864 68.5547 46.5909 69.1406 49.4318C72.6562 65.3409 69.7266 72.1591 66.7969 77.8409L65.625 80.6818L65.0391 81.8182L63.2812 87.5C59.1797 87.5 55.0781 85.7954 52.1484 82.9545ZM52.7344 104.545L49.8047 103.409L53.3203 102.273C60.9375 100.568 62.1094 99.4318 64.4531 96.5909L66.7969 93.75C68.5547 92.0454 69.1406 92.6136 70.3125 93.1818C70.8984 93.1818 72.0703 94.3182 72.6562 96.0227L72.0703 98.2954C66.7969 105.682 58.5937 105.682 52.7344 104.545ZM93.75 141.477C84.375 143.182 80.8594 138.636 78.5156 132.955C76.429 120.372 75.8392 107.599 76.7578 94.8864C75.5859 92.0454 73.8281 89.7727 72.0703 89.2045C70.8984 88.6364 69.1406 88.0682 67.3828 88.6364L69.1406 82.9545L69.7266 82.3864L70.8984 79.5454C73.8281 73.8636 77.3437 65.9091 73.2422 48.8636C72.0703 42.0454 66.7969 39.2045 59.7656 39.7727C55.6268 40.335 51.6439 41.6868 48.0469 43.75C48.6328 36.9318 50.9766 25 58.5937 17.0454C63.8672 12.5 70.3125 9.65908 78.5156 10.2273C94.3359 10.2273 104.297 18.1818 110.156 25C114.844 30.6818 117.773 36.3636 118.945 39.2045C110.742 38.6364 105.469 39.7727 102.539 43.75C96.6797 52.2727 106.055 68.75 110.156 76.1364L111.914 79.5454L116.602 86.9318L117.773 88.0682C115.43 89.2045 111.328 90.3409 111.328 98.2954L107.812 127.273C106.055 136.364 103.125 139.205 93.75 141.477ZM133.594 97.1591C131.25 98.2954 127.148 98.8636 123.047 98.8636C118.359 99.4318 116.602 98.8636 116.016 98.2954C115.43 93.1818 117.773 92.6136 119.531 92.0454H120.703L121.289 92.6136C124.805 94.8864 130.664 94.8864 139.453 93.1818H140.039L133.594 97.1591Z" fill="#666666"/>
</g>
<defs>
<clipPath id="clip0_1_520">
<rect width="150" height="150" fill="white"/>
</clipPath>
</defs>
</svg>
