<svg width="100" height="100" viewBox="0 0 100 100" fill="none" xmlns="http://www.w3.org/2000/svg">
<path d="M36.1031 38.4125C36.1031 38.7299 35.977 39.0344 35.7526 39.2588C35.5281 39.4833 35.2237 39.6094 34.9062 39.6094C34.5888 39.6094 34.2844 39.4833 34.0599 39.2588C33.8355 39.0344 33.7094 38.7299 33.7094 38.4125C33.7094 38.0951 33.8355 37.7906 34.0599 37.5662C34.2844 37.3417 34.5888 37.2156 34.9062 37.2156C35.2237 37.2156 35.5281 37.3417 35.7526 37.5662C35.977 37.7906 36.1031 38.0951 36.1031 38.4125ZM36.6656 32.7062C34.7967 32.7062 33.0043 33.4487 31.6827 34.7702C30.3612 36.0918 29.6187 37.8842 29.6187 39.7531C29.6187 41.6221 30.3612 43.4145 31.6827 44.736C33.0043 46.0576 34.7967 46.8 36.6656 46.8C38.5346 46.8 40.327 46.0576 41.6485 44.736C42.9701 43.4145 43.7125 41.6221 43.7125 39.7531C43.7125 37.8842 42.9701 36.0918 41.6485 34.7702C40.327 33.4487 38.5346 32.7062 36.6656 32.7062ZM36.8406 44.1906C35.7097 44.1906 34.6251 43.7414 33.8255 42.9417C33.0258 42.142 32.5766 41.0575 32.5766 39.9266C32.5766 38.7957 33.0258 37.7111 33.8255 36.9114C34.6251 36.1117 35.7097 35.6625 36.8406 35.6625C37.9715 35.6625 39.0561 36.1117 39.8558 36.9114C40.6554 37.7111 41.1047 38.7957 41.1047 39.9266C41.1047 41.0575 40.6554 42.142 39.8558 42.9417C39.0561 43.7414 37.9715 44.1906 36.8406 44.1906ZM67.175 39.6125C67.332 39.6127 67.4874 39.582 67.6325 39.5221C67.7776 39.4622 67.9095 39.3743 68.0207 39.2635C68.1318 39.1526 68.22 39.021 68.2803 38.876C68.3405 38.7311 68.3717 38.5757 68.3719 38.4187C68.3721 38.2618 68.3414 38.1063 68.2815 37.9612C68.2216 37.8161 68.1337 37.6842 68.0229 37.5731C67.912 37.4619 67.7804 37.3737 67.6354 37.3135C67.4905 37.2532 67.3351 37.2221 67.1781 37.2219C66.8611 37.2215 66.5569 37.347 66.3325 37.5709C66.108 37.7947 65.9817 38.0986 65.9812 38.4156C65.9808 38.7326 66.1064 39.0368 66.3302 39.2613C66.5541 39.4857 66.858 39.6121 67.175 39.6125ZM69.3594 47.0812C70.2975 47.1008 71.23 46.9329 72.1024 46.5873C72.9748 46.2418 73.7694 45.7256 74.4397 45.069C75.11 44.4124 75.6424 43.6286 76.0059 42.7635C76.3693 41.8984 76.5564 40.9695 76.5562 40.0312C76.556 39.0929 76.3685 38.1641 76.0047 37.2992C75.6408 36.4343 75.108 35.6507 74.4375 34.9944C73.7669 34.3381 72.972 33.8222 72.0995 33.4771C71.227 33.1319 70.2943 32.9644 69.3562 32.9844C67.5126 33.0236 65.7577 33.7836 64.4678 35.1015C63.178 36.4194 62.4558 38.1903 62.4562 40.0343C62.4566 41.8784 63.1796 43.6489 64.47 44.9662C65.7605 46.2836 67.5157 47.0428 69.3594 47.0812ZM69.1125 35.7375C70.2434 35.7375 71.328 36.1867 72.1276 36.9864C72.9273 37.7861 73.3766 38.8707 73.3766 40.0016C73.3766 41.1325 72.9273 42.217 72.1276 43.0167C71.328 43.8164 70.2434 44.2656 69.1125 44.2656C67.9816 44.2656 66.897 43.8164 66.0974 43.0167C65.2977 42.217 64.8484 41.1325 64.8484 40.0016C64.8484 38.8707 65.2977 37.7861 66.0974 36.9864C66.897 36.1867 67.9816 35.7375 69.1125 35.7375ZM85.4062 49.2906C85.4062 39.6281 81.5312 30.875 75.2594 24.4875C74.0937 20.9312 74.2281 16.0156 75.7062 13.7781C76.2219 12.9969 76.7719 12.2406 77.3625 11.3906C72.1156 10.4969 67.6531 12 64.6625 15.7437C64.3 16.2 63.9625 16.4687 63.6094 16.6C59.2974 14.803 54.6715 13.8799 50 13.8844C45.3114 13.8794 40.6689 14.8089 36.3438 16.6187C35.9719 16.4937 35.6187 16.2219 35.2375 15.7437C32.25 12.0031 27.7875 10.4969 22.5375 11.3906C23.1281 12.2406 23.6781 12.9969 24.1937 13.7781C25.6937 16.05 25.8094 21.0781 24.5906 24.6437C18.1706 31.2406 14.5832 40.0854 14.5938 49.2906C14.5938 53.8 15.4406 58.1125 16.9781 62.0781C17.3625 63.1656 17.7156 64.2656 18.075 65.3625C18.4031 66.3656 18.7188 67.3594 19.0094 68.3562C19.8656 71.2937 20.3906 74.3281 20.475 77.3875C20.5 78.225 20.4844 79.0625 20.4625 79.8969L20.4344 80.7594L27.6062 74.1969C28.9062 75.3969 30.675 76.4781 32.8062 77.4C31.7837 78.1128 30.9339 79.0457 30.3194 80.1302C29.7048 81.2146 29.3412 82.4231 29.2551 83.6666C29.1691 84.9101 29.3629 86.1571 29.8222 87.3158C30.2815 88.4746 30.9947 89.5157 31.9094 90.3625C31.6429 89.4822 31.5891 88.5513 31.7524 87.6461C31.9157 86.741 32.2915 85.8876 32.8488 85.156C33.4062 84.4243 34.1292 83.8354 34.9585 83.4376C35.7877 83.0398 36.6995 82.8444 37.619 82.8676C38.5384 82.8908 39.4392 83.1318 40.2474 83.5709C41.0556 84.01 41.748 84.6346 42.2678 85.3934C42.7876 86.1521 43.1199 87.0234 43.2374 87.9356C43.3549 88.8478 43.2543 89.7749 42.9437 90.6406C44.4085 89.4172 45.4089 87.7279 45.7775 85.8554C46.1461 83.9828 45.8606 82.0404 44.9688 80.3531C48.319 80.7017 51.6934 80.7561 55.0531 80.5156C54.244 82.1294 53.982 83.9627 54.3067 85.7386C54.6314 87.5144 55.5252 89.1363 56.8531 90.3594C56.5866 89.4791 56.5328 88.5481 56.6961 87.643C56.8595 86.7379 57.2352 85.8844 57.7926 85.1528C58.3499 84.4212 59.073 83.8323 59.9022 83.4345C60.7315 83.0367 61.6433 82.8413 62.5627 82.8645C63.4822 82.8877 64.383 83.1287 65.1911 83.5678C65.9993 84.0069 66.6917 84.6315 67.2115 85.3902C67.7313 86.149 68.0636 87.0203 68.1811 87.9325C68.2986 88.8447 68.198 89.7718 67.8875 90.6375C69.7125 89.1062 70.875 86.8094 70.875 84.2406C70.875 81.6844 69.725 79.3969 67.9125 77.8656C70.1187 77.0219 71.9969 76.0156 73.4469 74.8906L79.6469 80.5625C79.6344 80.2751 79.625 79.9876 79.6188 79.7C79.5911 78.8638 79.587 78.027 79.6062 77.1906C79.6937 74.1312 80.2188 71.0969 81.0719 68.1594C81.3625 67.1625 81.6781 66.1656 82.0062 65.1625C82.3844 64.0094 82.7531 62.8469 83.1625 61.7031C84.6125 57.8375 85.4094 53.6531 85.4094 49.2812L85.4062 49.2906ZM18.7094 59.85L17.3812 55.875L19.1437 57.4969L21.8781 56.5312L18.7094 59.85ZM19.3906 62.6937L21.1531 64.3156L23.8875 63.35L20.7188 66.6687L19.3906 62.6937ZM23.7219 56.775L25.3594 58.525L28.1562 57.7656L24.7469 60.8375L23.7219 56.775ZM22.4094 73.5906L21.0812 69.6156L22.8437 71.2375L25.5781 70.2719L22.4094 73.5906ZM26.7969 67.9375L25.4687 63.9625L27.2312 65.5844L29.9656 64.6187L26.7969 67.9375ZM29.8 57.9906L31.4375 59.7406L34.2344 58.9812L30.825 62.0531L29.8 57.9906ZM50.1063 63.8062C49.4031 62.7594 48.8156 61.5812 48.2687 60.5187C47.6406 59.3031 47.0094 58.0875 46.375 56.875C45.1625 54.5562 43.3625 52.1969 42.7594 49.5781C40.8214 51.152 38.4983 52.1799 36.0301 52.5557C33.5619 52.9314 31.0382 52.6413 28.7196 51.7155C26.4011 50.7896 24.3717 49.2614 22.8413 47.2889C21.3109 45.3164 20.3349 42.971 20.0141 40.4951C19.6934 38.0192 20.0395 35.5025 21.0167 33.2051C21.9939 30.9077 23.5668 28.9128 25.5729 27.4267C27.5789 25.9405 29.9454 25.0169 32.4279 24.7512C34.9103 24.4856 37.4186 24.8876 39.6937 25.9156C40.4906 26.2531 41.2531 26.6625 41.975 27.1375C44.1136 28.614 45.7965 30.6593 46.8336 33.0422C47.8707 35.4251 48.2206 38.0505 47.8438 40.6219C49.4293 40.1254 51.1344 40.1672 52.6937 40.7406C52.5685 39.9908 52.5047 39.232 52.5031 38.4719C52.5031 37.2594 52.6656 36.0844 52.9562 34.9625L53.0031 34.7969C53.1343 34.3199 53.2887 33.8495 53.4656 33.3875L53.5562 33.1562C54.6732 30.4152 56.629 28.098 59.1433 26.5364C61.6577 24.9747 64.6018 24.2488 67.5539 24.4626C70.5061 24.6763 73.3148 25.8188 75.578 27.7263C77.8412 29.6339 79.4427 32.2087 80.1532 35.082C80.8637 37.9553 80.6467 40.9798 79.5334 43.7223C78.42 46.4648 76.4673 48.7846 73.955 50.3495C71.4427 51.9145 68.4996 52.6443 65.5472 52.4344C62.5947 52.2246 59.7845 51.0858 57.5187 49.1812C57.225 50.5781 56.5156 51.7656 55.8094 53.0937C54.8469 54.9094 53.8937 56.7312 52.9437 58.5531L50.1063 63.8062ZM76.4594 57.25L75.4344 61.3125L72.025 58.2406L74.8219 58.9969L76.4594 57.25ZM65.9469 59.4562L68.7437 60.2156L70.3812 58.4656L69.3562 62.5281L65.9469 59.4562ZM73.3875 68.4125L70.2187 65.0937L72.9531 66.0594L74.7156 64.4375L73.3875 68.4125ZM77.7719 74.0656L74.6031 70.7469L77.3375 71.7125L79.1 70.0906L77.7719 74.0656ZM79.4625 67.1437L76.2937 63.825L79.0281 64.7906L80.7906 63.1687L79.4625 67.1437ZM81.4719 60.3281L78.3031 57.0094L81.0375 57.975L82.8 56.3531L81.4719 60.3281ZM50.0875 41.6781C49.2246 41.6781 48.3702 41.8481 47.573 42.1784C46.7759 42.5087 46.0516 42.9929 45.4416 43.6032C44.8316 44.2135 44.3478 44.938 44.0179 45.7353C43.6879 46.5326 43.5183 47.3871 43.5187 48.25C43.5187 51.1469 45.5625 53.6531 46.8437 56.1062L48.4906 59.275C48.9656 60.1969 49.4781 61.2219 50.0906 62.1312L52.5563 57.5656C53.3844 55.9812 54.2094 54.3969 55.0469 52.8187C55.8469 51.3125 56.6594 50.0156 56.6594 48.2469C56.6594 47.3838 56.4894 46.5293 56.1591 45.7319C55.8288 44.9346 55.3448 44.2101 54.7345 43.5999C54.1243 42.9896 53.3998 42.5055 52.6024 42.1752C51.8051 41.845 50.9505 41.6781 50.0875 41.6781Z" fill="#666666"/>
</svg>
