<svg width="100" height="100" viewBox="0 0 100 100" fill="none" xmlns="http://www.w3.org/2000/svg">
<path d="M49.8203 25C37.1266 25 37.9187 30.5047 37.9187 30.5047L37.9344 36.2078H50.0469V37.9188H33.1203C33.1203 37.9188 25 36.9969 25 49.8063C25 62.6125 32.0891 62.1594 32.0891 62.1594H36.3203V56.2156C36.3203 56.2156 36.0922 49.1266 43.2969 49.1266H55.3094C55.3094 49.1266 62.0594 49.2359 62.0594 42.6031V31.6359C62.0594 31.6359 63.0844 25 49.8203 25ZM43.1406 28.8344C43.7187 28.8344 44.2731 29.064 44.6819 29.4728C45.0907 29.8816 45.3203 30.436 45.3203 31.0141C45.3203 31.5922 45.0907 32.1466 44.6819 32.5553C44.2731 32.9641 43.7187 33.1937 43.1406 33.1937C42.8543 33.1942 42.5706 33.1381 42.306 33.0287C42.0414 32.9193 41.8009 32.7587 41.5984 32.5563C41.396 32.3538 41.2354 32.1133 41.126 31.8487C41.0166 31.584 40.9605 31.3004 40.9609 31.0141C40.9609 29.8094 41.9359 28.8344 43.1406 28.8344Z" fill="url(#paint0_linear_1_559)"/>
<path d="M50.1797 74.7391C62.8734 74.7391 62.0812 69.2344 62.0812 69.2344L62.0656 63.5313H49.9531V61.8203H66.8781C66.8781 61.8203 75 62.7422 75 49.9344C75 37.1266 67.9109 37.5813 67.9109 37.5813H63.6797V43.5234C63.6797 43.5234 63.9078 50.6125 56.7031 50.6125H44.6906C44.6906 50.6125 37.9406 50.5031 37.9406 57.1359V68.1031C37.9406 68.1031 36.9156 74.7391 50.1797 74.7391ZM56.8594 70.9047C56.573 70.9051 56.2894 70.849 56.0247 70.7396C55.7601 70.6302 55.5197 70.4697 55.3172 70.2672C55.1147 70.0647 54.9541 69.8243 54.8448 69.5596C54.7354 69.295 54.6793 69.0114 54.6797 68.725C54.68 68.2943 54.8079 67.8734 55.0474 67.5155C55.2869 67.1575 55.6271 66.8786 56.025 66.7139C56.4229 66.5493 56.8607 66.5063 57.2831 66.5904C57.7055 66.6745 58.0934 66.8819 58.398 67.1864C58.7025 67.4909 58.9099 67.8789 58.994 68.3013C59.0781 68.7236 59.0351 69.1614 58.8704 69.5594C58.7058 69.9573 58.4268 70.2975 58.0689 70.537C57.7109 70.7764 57.29 70.9044 56.8594 70.9047Z" fill="url(#paint1_linear_1_559)"/>
<defs>
<linearGradient id="paint0_linear_1_559" x1="29.8047" y1="29.3469" x2="54.5281" y2="54.1531" gradientUnits="userSpaceOnUse">
<stop stop-color="#3CA2F1"/>
<stop offset="1" stop-color="#3177AD"/>
</linearGradient>
<linearGradient id="paint1_linear_1_559" x1="45.014" y1="45.1281" x2="71.5672" y2="70.5672" gradientUnits="userSpaceOnUse">
<stop stop-color="#666666"/>
<stop offset="1" stop-color="#666666"/>
</linearGradient>
</defs>
</svg>
